<svg id="svg" version="1.1" xmlns="http://www.w3.org/2000/svg" xmlns:xlink="http://www.w3.org/1999/xlink" width="400" height="400" viewBox="0, 0, 400,400"><g id="svgg"><path id="path0" d="M195.217 0.293 C 194.348 0.635,192.870 2.117,192.726 2.790 C 192.657 3.115,192.375 3.623,192.101 3.918 C 191.826 4.214,191.482 4.938,191.337 5.528 C 191.191 6.118,190.785 6.870,190.433 7.200 C 190.082 7.530,189.540 8.295,189.230 8.900 C 188.919 9.505,188.515 10.000,188.332 10.000 C 188.150 10.000,188.000 10.230,188.000 10.512 C 188.000 10.793,187.640 11.283,187.200 11.600 C 186.760 11.917,186.400 12.457,186.400 12.800 C 186.400 13.143,186.040 13.683,185.600 14.000 C 185.160 14.317,184.800 14.780,184.800 15.029 C 184.800 15.278,184.260 16.046,183.600 16.737 C 182.940 17.428,182.400 18.176,182.400 18.400 C 182.400 18.624,181.860 19.372,181.200 20.063 C 180.540 20.754,180.000 21.480,180.000 21.678 C 180.000 21.875,179.550 22.486,179.000 23.036 C 178.450 23.586,178.000 24.180,178.000 24.356 C 178.000 24.532,177.557 25.191,177.016 25.821 C 176.475 26.450,176.099 27.032,176.180 27.114 C 176.262 27.195,175.804 27.762,175.164 28.374 C 174.524 28.986,174.000 29.694,174.000 29.947 C 174.000 30.200,173.460 30.972,172.800 31.663 C 172.140 32.354,171.600 33.074,171.600 33.263 C 171.600 33.452,171.060 34.172,170.400 34.863 C 169.740 35.554,169.200 36.322,169.200 36.571 C 169.200 36.820,168.840 37.283,168.400 37.600 C 167.960 37.917,167.600 38.425,167.600 38.728 C 167.600 39.031,167.060 39.783,166.400 40.400 C 165.740 41.017,165.200 41.639,165.200 41.784 C 165.200 42.047,163.221 44.672,161.900 46.162 C 161.515 46.596,161.200 47.104,161.200 47.292 C 161.200 47.480,160.825 48.031,160.366 48.517 C 159.907 49.003,159.251 49.940,158.907 50.600 C 158.563 51.260,157.948 52.091,157.541 52.447 C 157.133 52.803,156.800 53.299,156.800 53.551 C 156.800 53.802,156.260 54.572,155.600 55.263 C 154.940 55.954,154.400 56.722,154.400 56.971 C 154.400 57.220,154.040 57.683,153.600 58.000 C 153.160 58.317,152.800 58.927,152.800 59.355 C 152.800 59.783,152.689 60.022,152.552 59.886 C 152.277 59.611,151.201 60.554,151.199 61.071 C 151.199 61.252,150.659 62.030,150.000 62.800 C 149.341 63.570,148.801 64.359,148.801 64.553 C 148.800 64.747,148.467 65.197,148.059 65.553 C 147.652 65.909,147.012 66.794,146.638 67.521 C 146.264 68.247,145.698 68.941,145.379 69.063 C 145.061 69.186,144.800 69.560,144.800 69.896 C 144.800 70.232,144.473 70.797,144.072 71.153 C 143.431 71.723,142.657 73.170,142.800 73.530 C 142.829 73.602,142.481 73.983,142.026 74.377 C 141.572 74.771,141.200 75.258,141.200 75.459 C 141.200 75.659,140.840 76.083,140.400 76.400 C 139.960 76.717,139.600 77.209,139.600 77.492 C 139.600 77.775,139.060 78.572,138.400 79.263 C 137.740 79.954,137.200 80.722,137.200 80.971 C 137.200 81.220,136.840 81.683,136.400 82.000 C 135.960 82.317,135.600 82.857,135.600 83.200 C 135.600 83.543,135.240 84.083,134.800 84.400 C 134.360 84.717,134.000 85.215,134.000 85.506 C 134.000 85.798,133.550 86.486,133.000 87.036 C 132.450 87.586,132.000 88.180,132.000 88.356 C 132.000 88.532,131.550 89.199,131.000 89.838 C 130.451 90.477,130.001 91.185,130.000 91.412 C 130.000 91.638,129.640 92.083,129.200 92.400 C 128.760 92.717,128.400 93.179,128.400 93.426 C 128.400 93.674,128.040 94.202,127.600 94.600 C 127.160 94.998,126.800 95.468,126.800 95.644 C 126.800 95.963,125.179 98.562,124.406 99.483 C 124.183 99.749,124.000 100.204,124.000 100.495 C 124.000 100.786,123.640 101.283,123.200 101.600 C 122.760 101.917,122.400 102.457,122.400 102.800 C 122.400 103.143,122.040 103.683,121.600 104.000 C 121.160 104.317,120.800 104.857,120.800 105.200 C 120.800 105.543,120.440 106.083,120.000 106.400 C 119.560 106.717,119.200 107.257,119.200 107.600 C 119.200 107.943,118.840 108.483,118.400 108.800 C 117.960 109.117,117.600 109.567,117.600 109.800 C 117.600 110.033,117.240 110.483,116.800 110.800 C 116.360 111.117,116.000 111.697,116.000 112.088 C 116.000 112.480,115.850 112.800,115.668 112.800 C 115.485 112.800,115.080 113.295,114.768 113.900 C 114.455 114.505,113.885 115.349,113.500 115.775 C 113.115 116.202,112.800 116.787,112.800 117.075 C 112.800 117.364,112.642 117.600,112.449 117.600 C 112.255 117.600,111.873 118.140,111.600 118.800 C 111.327 119.460,110.945 120.000,110.751 120.000 C 110.558 120.000,110.400 120.360,110.400 120.800 C 110.400 121.240,110.190 121.600,109.933 121.600 C 109.677 121.600,109.578 121.711,109.714 121.848 C 109.850 121.984,109.699 122.358,109.377 122.680 C 109.056 123.001,108.875 123.397,108.975 123.559 C 109.075 123.722,108.807 124.107,108.379 124.415 C 107.950 124.724,107.600 125.207,107.600 125.488 C 107.600 125.770,107.420 126.000,107.200 126.000 C 106.980 126.000,106.800 126.270,106.800 126.600 C 106.800 126.930,106.620 127.200,106.400 127.200 C 106.180 127.200,106.000 127.470,106.000 127.800 C 106.000 128.130,105.820 128.400,105.600 128.400 C 105.380 128.400,105.200 128.720,105.200 129.112 C 105.200 129.503,104.840 130.083,104.400 130.400 C 103.960 130.717,103.600 131.297,103.600 131.688 C 103.600 132.080,103.420 132.400,103.200 132.400 C 102.980 132.400,102.800 132.636,102.800 132.925 C 102.800 133.213,102.440 133.836,102.000 134.308 C 101.560 134.780,101.200 135.404,101.200 135.695 C 101.200 135.986,100.840 136.483,100.400 136.800 C 99.960 137.117,99.600 137.697,99.600 138.088 C 99.600 138.480,99.420 138.800,99.200 138.800 C 98.980 138.800,98.800 139.094,98.800 139.453 C 98.800 139.812,98.471 140.397,98.070 140.753 C 97.668 141.109,97.084 141.985,96.772 142.700 C 96.460 143.415,96.097 144.000,95.965 144.000 C 95.834 144.000,95.295 144.855,94.768 145.900 C 94.242 146.945,93.628 147.932,93.405 148.094 C 93.182 148.256,93.148 148.391,93.329 148.394 C 93.509 148.397,93.365 148.692,93.009 149.048 C 92.652 149.405,92.257 150.215,92.130 150.848 C 92.004 151.482,91.742 152.000,91.550 152.000 C 91.358 152.000,91.200 152.320,91.200 152.712 C 91.200 153.103,90.840 153.683,90.400 154.000 C 89.960 154.317,89.600 154.897,89.600 155.288 C 89.600 155.680,89.420 156.000,89.200 156.000 C 88.980 156.000,88.800 156.360,88.800 156.800 C 88.800 157.240,88.620 157.600,88.400 157.600 C 88.180 157.600,88.000 157.793,88.000 158.028 C 88.000 158.263,87.460 159.241,86.800 160.200 C 86.140 161.159,85.600 162.137,85.600 162.372 C 85.600 162.607,85.420 162.800,85.200 162.800 C 84.980 162.800,84.800 163.160,84.800 163.600 C 84.800 164.040,84.620 164.400,84.400 164.400 C 84.180 164.400,84.000 164.760,84.000 165.200 C 84.000 165.640,83.820 166.000,83.600 166.000 C 83.380 166.000,83.200 166.360,83.200 166.800 C 83.200 167.240,83.065 167.603,82.900 167.606 C 82.735 167.610,82.160 168.510,81.621 169.606 C 81.083 170.703,80.498 171.600,80.321 171.600 C 80.145 171.600,80.000 171.960,80.000 172.400 C 80.000 172.840,79.820 173.200,79.600 173.200 C 79.380 173.200,79.200 173.560,79.200 174.000 C 79.200 174.440,79.020 174.800,78.800 174.800 C 78.580 174.800,78.400 175.160,78.400 175.600 C 78.400 176.040,78.257 176.400,78.082 176.400 C 77.739 176.400,76.241 179.778,76.383 180.234 C 76.430 180.386,76.318 180.621,76.134 180.755 C 75.603 181.144,74.800 182.732,74.800 183.395 C 74.800 183.728,74.620 184.000,74.400 184.000 C 74.180 184.000,74.000 184.360,74.000 184.800 C 74.000 185.240,73.820 185.600,73.600 185.600 C 73.380 185.600,73.200 185.949,73.200 186.376 C 73.200 186.803,73.020 187.264,72.800 187.400 C 72.580 187.536,72.400 188.087,72.400 188.624 C 72.400 189.161,72.220 189.600,72.000 189.600 C 71.780 189.600,71.600 189.945,71.600 190.367 C 71.600 190.788,71.465 191.193,71.300 191.267 C 71.135 191.340,70.575 192.300,70.056 193.400 C 69.537 194.500,68.952 195.713,68.756 196.095 C 68.560 196.477,68.400 197.062,68.400 197.395 C 68.400 197.728,68.220 198.000,68.000 198.000 C 67.780 198.000,67.600 198.360,67.600 198.800 C 67.600 199.240,67.420 199.600,67.200 199.600 C 66.980 199.600,66.800 200.140,66.800 200.800 C 66.800 201.460,66.620 202.000,66.400 202.000 C 66.180 202.000,66.000 202.360,66.000 202.800 C 66.000 203.240,65.820 203.600,65.600 203.600 C 65.380 203.600,65.200 204.140,65.200 204.800 C 65.200 205.460,65.020 206.000,64.800 206.000 C 64.580 206.000,64.400 206.360,64.400 206.800 C 64.400 207.240,64.220 207.600,64.000 207.600 C 63.780 207.600,63.600 208.039,63.600 208.576 C 63.600 209.113,63.420 209.664,63.200 209.800 C 62.980 209.936,62.800 210.487,62.800 211.024 C 62.800 211.561,62.620 212.000,62.400 212.000 C 62.180 212.000,62.000 212.414,62.000 212.920 C 62.000 213.426,61.848 214.011,61.663 214.220 C 61.211 214.729,59.849 219.183,59.822 220.239 C 59.810 220.700,59.583 221.339,59.317 221.659 C 59.051 221.980,58.937 222.637,59.063 223.121 C 59.199 223.639,59.110 224.000,58.847 224.000 C 58.601 224.000,58.400 224.540,58.400 225.200 C 58.400 225.860,58.220 226.400,58.000 226.400 C 57.780 226.400,57.600 227.030,57.600 227.800 C 57.600 228.570,57.420 229.200,57.200 229.200 C 56.980 229.200,56.800 229.999,56.800 230.976 C 56.800 231.953,56.620 232.864,56.400 233.000 C 56.180 233.136,56.000 233.957,56.000 234.824 C 56.000 235.691,55.820 236.400,55.600 236.400 C 55.378 236.400,55.200 237.467,55.200 238.800 C 55.200 240.133,55.022 241.200,54.800 241.200 C 54.565 241.200,54.400 242.600,54.400 244.600 C 54.400 246.600,54.235 248.000,54.000 248.000 C 53.458 248.000,53.458 262.665,54.000 263.000 C 54.227 263.140,54.400 265.137,54.400 267.624 C 54.400 270.275,54.558 272.000,54.800 272.000 C 55.029 272.000,55.200 273.200,55.200 274.800 C 55.200 276.400,55.371 277.600,55.600 277.600 C 55.822 277.600,56.000 278.667,56.000 280.000 C 56.000 281.333,56.178 282.400,56.400 282.400 C 56.620 282.400,56.800 283.199,56.800 284.176 C 56.800 285.153,56.980 286.064,57.200 286.200 C 57.420 286.336,57.600 287.157,57.600 288.024 C 57.600 288.891,57.780 289.600,58.000 289.600 C 58.220 289.600,58.400 290.230,58.400 291.000 C 58.400 291.770,58.592 292.400,58.827 292.400 C 59.066 292.400,59.147 292.738,59.009 293.171 C 58.875 293.594,59.014 294.539,59.318 295.271 C 59.622 296.002,59.801 296.809,59.714 297.063 C 59.628 297.318,59.747 297.644,59.979 297.787 C 60.210 297.930,60.400 298.476,60.400 299.000 C 60.400 299.524,60.580 300.064,60.800 300.200 C 61.020 300.336,61.200 300.876,61.200 301.400 C 61.200 301.924,61.380 302.464,61.600 302.600 C 61.820 302.736,62.000 303.276,62.000 303.800 C 62.000 304.324,62.180 304.864,62.400 305.000 C 62.620 305.136,62.800 305.597,62.800 306.024 C 62.800 306.451,62.980 306.800,63.200 306.800 C 63.420 306.800,63.600 307.250,63.600 307.800 C 63.600 308.350,63.780 308.800,64.000 308.800 C 64.220 308.800,64.400 309.239,64.400 309.776 C 64.400 310.313,64.580 310.864,64.800 311.000 C 65.020 311.136,65.200 311.597,65.200 312.024 C 65.200 312.451,65.380 312.800,65.600 312.800 C 65.820 312.800,66.000 313.160,66.000 313.600 C 66.000 314.040,66.180 314.400,66.400 314.400 C 66.620 314.400,66.800 314.760,66.800 315.200 C 66.800 315.640,66.980 316.000,67.200 316.000 C 67.420 316.000,67.600 316.450,67.600 317.000 C 67.600 317.550,67.735 318.001,67.900 318.001 C 68.065 318.002,68.650 318.992,69.200 320.200 C 69.750 321.408,70.335 322.398,70.500 322.399 C 70.665 322.399,70.800 322.760,70.800 323.200 C 70.800 323.640,70.980 324.000,71.200 324.000 C 71.420 324.000,71.600 324.270,71.600 324.600 C 71.600 324.930,71.780 325.200,72.000 325.200 C 72.220 325.200,72.400 325.560,72.400 326.000 C 72.400 326.440,72.580 326.800,72.800 326.800 C 73.020 326.800,73.200 327.120,73.200 327.512 C 73.200 327.903,73.560 328.483,74.000 328.800 C 74.440 329.117,74.813 329.652,74.829 329.988 C 74.845 330.325,75.203 331.140,75.625 331.800 C 76.046 332.460,76.696 333.585,77.069 334.300 C 77.443 335.015,77.895 335.600,78.074 335.600 C 78.253 335.600,78.400 335.825,78.400 336.100 C 78.401 336.375,78.866 337.140,79.435 337.800 C 80.004 338.460,80.763 339.495,81.121 340.100 C 81.479 340.705,81.914 341.200,82.086 341.200 C 82.259 341.200,82.400 341.398,82.400 341.640 C 82.400 341.881,82.940 342.583,83.600 343.200 C 84.260 343.817,84.800 344.487,84.800 344.690 C 84.800 344.893,85.700 346.022,86.800 347.200 C 87.900 348.378,88.800 349.490,88.800 349.671 C 88.800 349.996,92.203 353.667,95.516 356.917 C 102.115 363.387,104.919 366.000,105.265 366.000 C 105.484 366.000,106.354 366.720,107.200 367.600 C 108.046 368.480,109.051 369.200,109.435 369.200 C 109.819 369.200,110.018 369.315,109.877 369.456 C 109.634 369.700,111.935 371.980,112.438 371.994 C 112.569 371.997,113.199 372.450,113.838 373.000 C 114.477 373.549,115.148 373.999,115.329 374.000 C 115.509 374.000,115.908 374.225,116.215 374.500 C 117.545 375.693,117.992 376.000,118.400 376.000 C 118.638 376.000,119.220 376.360,119.692 376.800 C 120.164 377.240,120.787 377.600,121.075 377.600 C 121.364 377.600,121.600 377.780,121.600 378.000 C 121.600 378.220,121.920 378.400,122.312 378.400 C 122.703 378.400,123.283 378.760,123.600 379.200 C 123.917 379.640,124.497 380.000,124.888 380.000 C 125.280 380.000,125.600 380.180,125.600 380.400 C 125.600 380.620,125.971 380.800,126.424 380.800 C 126.877 380.800,127.136 380.980,127.000 381.200 C 126.864 381.420,127.033 381.600,127.376 381.600 C 127.719 381.600,128.000 381.780,128.000 382.000 C 128.000 382.220,128.270 382.400,128.600 382.400 C 128.930 382.400,129.200 382.580,129.200 382.800 C 129.200 383.020,129.560 383.200,130.000 383.200 C 130.440 383.200,130.800 383.380,130.800 383.600 C 130.800 383.820,131.160 384.000,131.600 384.000 C 132.040 384.000,132.400 384.180,132.400 384.400 C 132.400 384.620,132.760 384.800,133.200 384.800 C 133.640 384.800,134.000 384.980,134.000 385.200 C 134.000 385.420,134.360 385.600,134.800 385.600 C 135.240 385.600,135.600 385.780,135.600 386.000 C 135.600 386.220,135.960 386.400,136.400 386.400 C 136.840 386.400,137.200 386.580,137.200 386.800 C 137.200 387.020,137.560 387.200,138.000 387.200 C 138.440 387.200,138.800 387.380,138.800 387.600 C 138.800 387.820,139.042 388.000,139.339 388.000 C 139.635 388.000,140.400 388.250,141.039 388.556 C 144.806 390.361,148.213 391.600,149.408 391.600 C 149.954 391.600,150.400 391.780,150.400 392.000 C 150.400 392.220,150.940 392.400,151.600 392.400 C 152.260 392.400,152.800 392.580,152.800 392.800 C 152.800 393.020,153.239 393.200,153.776 393.200 C 154.313 393.200,154.864 393.380,155.000 393.600 C 155.136 393.820,155.777 394.000,156.424 394.000 C 157.071 394.000,157.600 394.180,157.600 394.400 C 157.600 394.620,158.140 394.800,158.800 394.800 C 159.460 394.800,160.000 394.980,160.000 395.200 C 160.000 395.420,160.630 395.600,161.400 395.600 C 162.170 395.600,162.800 395.780,162.800 396.000 C 162.800 396.220,163.520 396.400,164.400 396.400 C 165.280 396.400,166.000 396.580,166.000 396.800 C 166.000 397.020,166.709 397.200,167.576 397.200 C 168.443 397.200,169.264 397.380,169.400 397.600 C 169.536 397.820,170.627 398.000,171.824 398.000 C 173.021 398.000,174.000 398.180,174.000 398.400 C 174.000 398.620,174.975 398.800,176.167 398.800 C 177.544 398.800,178.394 398.982,178.500 399.300 C 178.744 400.031,221.256 400.031,221.500 399.300 C 221.606 398.982,222.456 398.800,223.833 398.800 C 225.025 398.800,226.000 398.620,226.000 398.400 C 226.000 398.180,226.979 398.000,228.176 398.000 C 229.373 398.000,230.464 397.820,230.600 397.600 C 230.736 397.380,231.557 397.200,232.424 397.200 C 233.291 397.200,234.000 397.020,234.000 396.800 C 234.000 396.580,234.720 396.400,235.600 396.400 C 236.480 396.400,237.200 396.220,237.200 396.000 C 237.200 395.780,237.830 395.600,238.600 395.600 C 239.370 395.600,240.000 395.420,240.000 395.200 C 240.000 394.980,240.540 394.800,241.200 394.800 C 241.860 394.800,242.400 394.620,242.400 394.400 C 242.400 394.180,242.940 394.000,243.600 394.000 C 244.260 394.000,244.800 393.820,244.800 393.600 C 244.800 393.380,245.340 393.200,246.000 393.200 C 246.660 393.200,247.200 393.020,247.200 392.800 C 247.200 392.580,247.740 392.400,248.400 392.400 C 249.060 392.400,249.600 392.244,249.600 392.054 C 249.600 391.864,250.406 391.598,251.391 391.463 C 252.376 391.328,253.501 391.049,253.891 390.842 C 254.281 390.636,255.320 390.162,256.200 389.790 C 257.080 389.418,258.323 388.862,258.961 388.556 C 259.600 388.250,260.365 388.000,260.661 388.000 C 260.958 388.000,261.200 387.820,261.200 387.600 C 261.200 387.380,261.560 387.200,262.000 387.200 C 262.440 387.200,262.800 387.020,262.800 386.800 C 262.800 386.580,263.160 386.400,263.600 386.400 C 264.040 386.400,264.400 386.220,264.400 386.000 C 264.400 385.780,264.760 385.600,265.200 385.600 C 265.640 385.600,266.000 385.420,266.000 385.200 C 266.000 384.980,266.360 384.800,266.800 384.800 C 267.240 384.800,267.600 384.620,267.600 384.400 C 267.600 384.180,267.960 384.000,268.400 384.000 C 268.840 384.000,269.200 383.820,269.200 383.600 C 269.200 383.380,269.560 383.200,270.000 383.200 C 270.440 383.200,270.800 383.020,270.800 382.800 C 270.800 382.580,271.070 382.400,271.400 382.400 C 271.730 382.400,272.000 382.220,272.000 382.000 C 272.000 381.780,272.270 381.600,272.600 381.600 C 272.930 381.600,273.200 381.420,273.200 381.200 C 273.200 380.980,273.560 380.800,274.000 380.800 C 274.440 380.800,274.800 380.620,274.800 380.400 C 274.800 380.180,275.030 380.000,275.312 380.000 C 275.593 380.000,276.083 379.640,276.400 379.200 C 276.717 378.760,277.297 378.400,277.688 378.400 C 278.080 378.400,278.400 378.220,278.400 378.000 C 278.400 377.780,278.636 377.600,278.925 377.600 C 279.213 377.600,279.836 377.240,280.308 376.800 C 280.780 376.360,281.367 376.000,281.612 376.000 C 281.857 376.000,282.308 375.775,282.615 375.500 C 283.900 374.348,284.385 374.000,284.708 374.000 C 284.895 374.000,285.406 373.667,285.843 373.261 C 286.279 372.854,286.826 372.449,287.057 372.361 C 287.693 372.118,290.695 369.615,292.646 367.700 C 293.599 366.765,294.566 366.000,294.795 366.000 C 295.023 366.000,296.907 364.335,298.982 362.300 C 301.056 360.265,303.709 357.680,304.876 356.555 C 307.800 353.739,311.200 350.027,311.200 349.652 C 311.200 349.481,312.100 348.378,313.200 347.200 C 314.300 346.022,315.200 344.893,315.200 344.690 C 315.200 344.487,315.740 343.817,316.400 343.200 C 317.060 342.583,317.600 341.881,317.600 341.640 C 317.600 341.398,317.741 341.200,317.914 341.200 C 318.086 341.200,318.521 340.705,318.879 340.100 C 319.237 339.495,319.996 338.460,320.565 337.800 C 321.134 337.140,321.599 336.457,321.600 336.283 C 321.600 336.109,321.788 335.749,322.017 335.483 C 323.026 334.315,325.200 330.571,325.200 330.002 C 325.200 329.658,325.560 329.117,326.000 328.800 C 326.440 328.483,326.800 327.903,326.800 327.512 C 326.800 327.120,326.980 326.800,327.200 326.800 C 327.420 326.800,327.600 326.440,327.600 326.000 C 327.600 325.560,327.780 325.200,328.000 325.200 C 328.220 325.200,328.400 324.930,328.400 324.600 C 328.400 324.270,328.580 324.000,328.800 324.000 C 329.020 324.000,329.200 323.655,329.200 323.233 C 329.200 322.812,329.335 322.407,329.500 322.333 C 329.924 322.145,332.400 317.201,332.400 316.544 C 332.400 316.245,332.580 316.000,332.800 316.000 C 333.020 316.000,333.200 315.640,333.200 315.200 C 333.200 314.760,333.380 314.400,333.600 314.400 C 333.820 314.400,334.000 314.040,334.000 313.600 C 334.000 313.160,334.180 312.800,334.400 312.800 C 334.620 312.800,334.800 312.451,334.800 312.024 C 334.800 311.597,334.980 311.136,335.200 311.000 C 335.420 310.864,335.600 310.313,335.600 309.776 C 335.600 309.239,335.780 308.800,336.000 308.800 C 336.220 308.800,336.400 308.528,336.400 308.195 C 336.400 307.862,336.580 307.232,336.800 306.795 C 337.020 306.358,337.380 305.642,337.600 305.205 C 337.820 304.768,338.000 304.059,338.000 303.629 C 338.000 303.199,338.180 302.736,338.400 302.600 C 338.620 302.464,338.800 301.924,338.800 301.400 C 338.800 300.876,338.980 300.336,339.200 300.200 C 339.420 300.064,339.600 299.524,339.600 299.000 C 339.600 298.476,339.780 297.936,340.000 297.800 C 340.220 297.664,340.400 297.034,340.400 296.400 C 340.400 295.766,340.566 295.145,340.769 295.019 C 340.971 294.894,341.262 293.623,341.415 292.196 C 341.568 290.768,341.852 289.600,342.047 289.600 C 342.241 289.600,342.400 288.891,342.400 288.024 C 342.400 287.157,342.580 286.336,342.800 286.200 C 343.020 286.064,343.200 285.153,343.200 284.176 C 343.200 283.199,343.380 282.400,343.600 282.400 C 343.822 282.400,344.000 281.333,344.000 280.000 C 344.000 278.667,344.178 277.600,344.400 277.600 C 344.629 277.600,344.800 276.400,344.800 274.800 C 344.800 273.200,344.971 272.000,345.200 272.000 C 345.442 272.000,345.600 270.275,345.600 267.624 C 345.600 265.137,345.773 263.140,346.000 263.000 C 346.243 262.850,346.400 259.937,346.400 255.600 C 346.400 251.263,346.243 248.350,346.000 248.200 C 345.780 248.064,345.600 246.433,345.600 244.576 C 345.600 242.592,345.435 241.200,345.200 241.200 C 344.980 241.200,344.800 240.221,344.800 239.024 C 344.800 237.827,344.620 236.736,344.400 236.600 C 344.180 236.464,344.000 235.654,344.000 234.800 C 344.000 233.946,343.820 233.136,343.600 233.000 C 343.380 232.864,343.200 232.054,343.200 231.200 C 343.200 230.346,343.020 229.536,342.800 229.400 C 342.580 229.264,342.400 228.533,342.400 227.776 C 342.400 227.019,342.243 226.400,342.052 226.400 C 341.860 226.400,341.579 225.455,341.428 224.300 C 341.088 221.705,338.143 212.637,336.753 209.905 C 336.559 209.523,336.400 208.848,336.400 208.405 C 336.400 207.962,336.220 207.600,336.000 207.600 C 335.780 207.600,335.600 207.161,335.600 206.624 C 335.600 206.087,335.420 205.536,335.200 205.400 C 334.980 205.264,334.800 204.803,334.800 204.376 C 334.800 203.949,334.620 203.600,334.400 203.600 C 334.180 203.600,334.000 203.060,334.000 202.400 C 334.000 201.740,333.820 201.200,333.600 201.200 C 333.380 201.200,333.200 200.840,333.200 200.400 C 333.200 199.960,333.020 199.600,332.800 199.600 C 332.580 199.600,332.400 199.161,332.400 198.624 C 332.400 198.087,332.220 197.536,332.000 197.400 C 331.780 197.264,331.600 196.803,331.600 196.376 C 331.600 195.949,331.420 195.600,331.200 195.600 C 330.980 195.600,330.800 195.240,330.800 194.800 C 330.800 194.360,330.620 194.000,330.400 194.000 C 330.180 194.000,330.000 193.550,330.000 193.000 C 330.000 192.450,329.820 192.000,329.600 192.000 C 329.380 192.000,329.200 191.640,329.200 191.200 C 329.200 190.760,329.020 190.400,328.800 190.400 C 328.580 190.400,328.400 190.040,328.400 189.600 C 328.400 189.160,328.220 188.800,328.000 188.800 C 327.780 188.800,327.600 188.440,327.600 188.000 C 327.600 187.560,327.420 187.200,327.200 187.200 C 326.980 187.200,326.800 186.761,326.800 186.224 C 326.800 185.687,326.620 185.136,326.400 185.000 C 326.180 184.864,326.000 184.403,326.000 183.976 C 326.000 183.549,325.820 183.200,325.600 183.200 C 325.380 183.200,325.200 182.940,325.200 182.621 C 325.200 181.906,322.334 175.850,321.909 175.667 C 321.739 175.593,321.600 175.188,321.600 174.767 C 321.600 174.345,321.420 174.000,321.200 174.000 C 320.980 174.000,320.800 173.640,320.800 173.200 C 320.800 172.760,320.620 172.400,320.400 172.400 C 320.180 172.400,320.000 172.040,320.000 171.600 C 320.000 171.160,319.820 170.800,319.600 170.800 C 319.380 170.800,319.200 170.440,319.200 170.000 C 319.200 169.560,319.020 169.200,318.800 169.200 C 318.580 169.200,318.400 168.840,318.400 168.400 C 318.400 167.960,318.220 167.600,318.000 167.600 C 317.780 167.600,317.600 167.240,317.600 166.800 C 317.600 166.360,317.465 165.999,317.300 165.999 C 317.135 165.998,316.550 165.008,316.000 163.800 C 315.450 162.592,314.865 161.602,314.700 161.601 C 314.535 161.601,314.400 161.330,314.400 161.000 C 314.400 160.670,314.254 160.400,314.075 160.400 C 313.896 160.400,313.502 159.770,313.200 159.000 C 312.898 158.230,312.504 157.600,312.325 157.600 C 312.146 157.600,312.000 157.240,312.000 156.800 C 312.000 156.360,311.820 156.000,311.600 156.000 C 311.380 156.000,311.200 155.640,311.200 155.200 C 311.200 154.760,311.020 154.400,310.800 154.400 C 310.580 154.400,310.400 154.080,310.400 153.688 C 310.400 153.297,310.040 152.717,309.600 152.400 C 309.160 152.083,308.800 151.547,308.800 151.209 C 308.800 150.605,306.928 146.793,306.438 146.400 C 306.301 146.290,305.742 145.300,305.195 144.200 C 304.648 143.100,303.886 141.851,303.501 141.425 C 303.115 140.998,302.800 140.413,302.800 140.125 C 302.800 139.836,302.620 139.600,302.400 139.600 C 302.180 139.600,302.000 139.240,302.000 138.800 C 302.000 138.360,301.842 138.000,301.649 138.000 C 301.455 138.000,301.073 137.460,300.800 136.800 C 300.527 136.140,300.145 135.600,299.951 135.600 C 299.758 135.600,299.600 135.240,299.600 134.800 C 299.600 134.360,299.420 134.000,299.200 134.000 C 298.980 134.000,298.800 133.764,298.800 133.475 C 298.800 133.187,298.440 132.564,298.000 132.092 C 297.560 131.620,297.200 130.956,297.200 130.617 C 297.200 130.278,297.020 130.000,296.800 130.000 C 296.580 130.000,296.400 129.730,296.400 129.400 C 296.400 129.070,296.220 128.800,296.000 128.800 C 295.780 128.800,295.600 128.530,295.600 128.200 C 295.600 127.870,295.464 127.600,295.298 127.600 C 295.131 127.600,294.771 127.094,294.497 126.475 C 294.224 125.856,293.640 124.964,293.200 124.492 C 292.760 124.020,292.400 123.356,292.400 123.017 C 292.400 122.678,292.265 122.400,292.100 122.399 C 291.935 122.399,291.274 121.319,290.630 119.999 C 289.987 118.680,289.312 117.600,289.130 117.600 C 288.949 117.600,288.800 117.364,288.800 117.075 C 288.800 116.787,288.440 116.164,288.000 115.692 C 287.560 115.220,287.200 114.556,287.200 114.217 C 287.200 113.878,287.020 113.600,286.800 113.600 C 286.580 113.600,286.400 113.330,286.400 113.000 C 286.400 112.670,286.220 112.400,286.000 112.400 C 285.780 112.400,285.600 112.130,285.600 111.800 C 285.600 111.470,285.420 111.200,285.200 111.200 C 284.980 111.200,284.800 110.930,284.800 110.600 C 284.800 110.270,284.650 110.000,284.468 110.000 C 284.285 110.000,283.881 109.505,283.570 108.900 C 283.260 108.295,282.689 107.509,282.303 107.153 C 281.916 106.797,281.600 106.295,281.600 106.036 C 281.600 105.778,281.240 105.180,280.800 104.708 C 280.360 104.236,280.000 103.613,280.000 103.325 C 280.000 103.036,279.820 102.800,279.600 102.800 C 279.380 102.800,279.200 102.564,279.200 102.275 C 279.200 101.987,278.840 101.364,278.400 100.892 C 277.960 100.420,277.600 99.796,277.600 99.505 C 277.600 99.214,277.240 98.717,276.800 98.400 C 276.360 98.083,276.000 97.670,276.000 97.482 C 276.000 97.130,272.494 91.558,272.048 91.200 C 271.911 91.090,271.544 90.505,271.232 89.900 C 270.920 89.295,270.515 88.800,270.332 88.800 C 270.150 88.800,270.000 88.564,270.000 88.275 C 270.000 87.987,269.685 87.402,269.300 86.975 C 268.915 86.549,268.345 85.705,268.032 85.100 C 267.720 84.495,267.315 84.000,267.132 84.000 C 266.950 84.000,266.800 83.775,266.799 83.500 C 266.799 83.225,266.259 82.370,265.600 81.600 C 264.941 80.830,264.401 80.041,264.401 79.847 C 264.400 79.653,264.084 79.203,263.697 78.847 C 263.311 78.491,262.740 77.705,262.430 77.100 C 262.119 76.495,261.715 76.000,261.532 76.000 C 261.350 76.000,261.200 75.770,261.200 75.488 C 261.200 75.207,260.840 74.717,260.400 74.400 C 259.960 74.083,259.600 73.580,259.600 73.283 C 259.600 72.986,259.375 72.492,259.100 72.185 C 258.206 71.188,257.810 70.619,257.232 69.500 C 256.920 68.895,256.515 68.400,256.332 68.400 C 256.150 68.400,256.000 68.164,256.000 67.875 C 256.000 67.587,255.640 66.964,255.200 66.492 C 254.760 66.020,254.400 65.473,254.400 65.276 C 254.400 65.079,253.905 64.394,253.300 63.752 C 252.695 63.111,251.945 62.094,251.632 61.493 C 251.320 60.892,250.915 60.400,250.732 60.400 C 250.550 60.400,250.400 60.202,250.400 59.960 C 250.400 59.719,249.860 59.017,249.200 58.400 C 248.540 57.783,248.000 57.031,248.000 56.728 C 248.000 56.425,247.640 55.917,247.200 55.600 C 246.760 55.283,246.400 54.775,246.400 54.472 C 246.400 54.169,245.860 53.417,245.200 52.800 C 244.540 52.183,244.000 51.431,244.000 51.128 C 244.000 50.825,243.640 50.317,243.200 50.000 C 242.760 49.683,242.400 49.281,242.400 49.107 C 242.400 48.543,239.098 43.936,238.541 43.722 C 238.243 43.608,238.000 43.262,238.000 42.954 C 238.000 42.645,237.460 41.828,236.800 41.137 C 236.140 40.446,235.600 39.678,235.600 39.429 C 235.600 39.180,235.240 38.717,234.800 38.400 C 234.360 38.083,234.000 37.620,234.000 37.371 C 234.000 37.122,233.460 36.354,232.800 35.663 C 232.140 34.972,231.600 34.252,231.600 34.063 C 231.600 33.874,231.060 33.154,230.400 32.463 C 229.740 31.772,229.200 31.026,229.200 30.804 C 229.200 30.582,229.020 30.400,228.800 30.400 C 228.580 30.400,228.400 30.170,228.400 29.888 C 228.400 29.607,228.040 29.117,227.600 28.800 C 227.160 28.483,226.800 28.008,226.800 27.745 C 226.800 27.482,226.648 27.207,226.462 27.133 C 226.276 27.060,225.423 26.010,224.567 24.800 C 223.710 23.590,222.693 22.251,222.305 21.825 C 221.917 21.398,221.600 20.885,221.600 20.685 C 221.600 20.485,221.060 19.817,220.400 19.200 C 219.740 18.583,219.200 17.908,219.200 17.699 C 219.200 17.490,218.660 16.754,218.000 16.063 C 217.340 15.372,216.800 14.626,216.800 14.404 C 216.800 14.182,216.620 14.000,216.400 14.000 C 216.180 14.000,216.000 13.802,216.000 13.560 C 216.000 13.319,215.460 12.617,214.800 12.000 C 214.140 11.383,213.600 10.771,213.600 10.640 C 213.600 10.508,212.880 9.659,212.000 8.752 C 211.120 7.845,210.400 6.921,210.400 6.699 C 210.400 6.476,210.083 6.003,209.697 5.647 C 209.310 5.291,208.475 4.234,207.841 3.298 C 205.836 0.337,199.149 -1.255,195.217 0.293 " stroke="none" fill="#349cc4" fill-rule="evenodd"></path><path id="path1" d="" stroke="none" fill="#389cc4" fill-rule="evenodd"></path><path id="path2" d="" stroke="none" fill="#389cc4" fill-rule="evenodd"></path><path id="path3" d="" stroke="none" fill="#389cc4" fill-rule="evenodd"></path><path id="path4" d="" stroke="none" fill="#389cc4" fill-rule="evenodd"></path><path id="path5" d="" stroke="none" fill="#389cc4" fill-rule="evenodd"></path><path id="path6" d="" stroke="none" fill="#389cc4" fill-rule="evenodd"></path></g></svg>