<svg id="svg" version="1.1" xmlns="http://www.w3.org/2000/svg" xmlns:xlink="http://www.w3.org/1999/xlink" width="400" height="409.04761904761904" viewBox="0, 0, 400,409.04761904761904"><g id="svgg"><path id="path0" d="M167.322 0.257 C 167.060 0.364,166.935 0.687,167.045 0.974 C 167.156 1.262,166.966 1.777,166.623 2.120 C 166.280 2.463,166.000 2.949,166.000 3.200 C 166.000 3.790,164.991 4.800,164.402 4.800 C 164.128 4.800,164.048 5.120,164.200 5.600 C 164.351 6.077,164.272 6.400,164.003 6.400 C 163.756 6.400,163.652 6.561,163.774 6.758 C 163.896 6.955,163.725 7.220,163.394 7.347 C 163.063 7.474,162.823 7.718,162.860 7.889 C 162.999 8.531,162.293 9.600,161.730 9.600 C 161.328 9.600,161.225 9.849,161.400 10.400 C 161.551 10.877,161.472 11.200,161.203 11.200 C 160.956 11.200,160.864 11.380,161.000 11.600 C 161.136 11.820,160.866 12.000,160.400 12.000 C 159.932 12.000,159.664 12.181,159.802 12.404 C 160.198 13.045,159.606 14.400,158.930 14.400 C 158.534 14.400,158.401 14.625,158.556 15.030 C 158.812 15.697,157.968 16.800,157.202 16.800 C 156.928 16.800,156.848 17.120,157.000 17.600 C 157.146 18.059,157.072 18.400,156.827 18.400 C 156.592 18.400,156.400 18.670,156.400 19.000 C 156.400 19.330,156.220 19.600,156.000 19.600 C 155.780 19.600,155.640 19.735,155.689 19.900 C 155.832 20.382,153.564 24.000,153.119 24.000 C 152.897 24.000,152.818 24.270,152.945 24.600 C 153.085 24.965,152.945 25.200,152.587 25.200 C 152.264 25.200,152.036 25.335,152.079 25.500 C 152.223 26.046,151.553 27.600,151.173 27.600 C 150.968 27.600,150.800 27.836,150.800 28.125 C 150.800 28.413,150.395 29.084,149.900 29.615 C 149.405 30.147,149.045 30.630,149.100 30.691 C 149.343 30.956,149.160 31.585,148.700 32.071 C 148.425 32.362,147.945 33.095,147.632 33.700 C 147.320 34.305,146.842 34.800,146.570 34.800 C 146.272 34.800,146.158 35.118,146.284 35.600 C 146.406 36.065,146.296 36.400,146.023 36.400 C 145.764 36.400,145.664 36.580,145.800 36.800 C 145.936 37.020,145.878 37.200,145.672 37.200 C 145.466 37.200,145.073 37.740,144.800 38.400 C 144.527 39.060,144.190 39.603,144.051 39.607 C 143.913 39.610,143.266 40.690,142.614 42.007 C 141.961 43.323,141.177 44.400,140.871 44.400 C 140.560 44.400,140.409 44.646,140.528 44.956 C 140.645 45.262,140.402 45.877,139.987 46.322 C 139.572 46.767,139.116 47.597,138.973 48.166 C 138.830 48.735,138.575 49.200,138.405 49.200 C 138.236 49.200,137.873 49.740,137.600 50.400 C 137.327 51.060,136.964 51.600,136.795 51.600 C 136.625 51.600,136.382 52.019,136.253 52.531 C 136.124 53.043,135.600 53.914,135.088 54.467 C 134.576 55.020,134.227 55.680,134.312 55.936 C 134.397 56.191,134.187 56.400,133.846 56.400 C 133.458 56.400,133.312 56.626,133.455 57.000 C 133.582 57.330,133.486 57.600,133.243 57.600 C 132.999 57.600,132.800 57.881,132.800 58.224 C 132.800 58.593,132.612 58.731,132.338 58.562 C 132.064 58.393,131.985 58.451,132.142 58.706 C 132.288 58.942,132.144 59.399,131.823 59.720 C 131.501 60.042,131.345 60.412,131.476 60.543 C 131.607 60.674,131.430 60.890,131.083 61.024 C 130.735 61.157,130.548 61.521,130.668 61.833 C 130.802 62.183,130.630 62.400,130.219 62.400 C 129.853 62.400,129.652 62.561,129.774 62.758 C 129.896 62.955,129.729 63.218,129.404 63.343 C 129.069 63.472,128.915 63.835,129.050 64.185 C 129.179 64.523,129.076 64.800,128.819 64.800 C 128.563 64.800,128.456 64.967,128.582 65.171 C 128.708 65.375,128.458 65.655,128.026 65.792 C 127.569 65.937,127.330 66.273,127.454 66.596 C 127.571 66.901,127.307 67.458,126.868 67.834 C 126.429 68.210,126.164 68.761,126.278 69.059 C 126.392 69.356,126.256 69.600,125.976 69.600 C 125.696 69.600,125.578 69.711,125.714 69.848 C 125.850 69.984,125.745 70.338,125.481 70.634 C 124.262 71.999,123.991 72.401,124.284 72.412 C 124.458 72.419,124.281 72.610,123.892 72.837 C 123.502 73.064,123.293 73.427,123.428 73.645 C 123.562 73.863,123.238 74.443,122.708 74.935 C 122.177 75.427,121.816 76.048,121.905 76.315 C 121.994 76.582,121.861 76.800,121.610 76.800 C 121.358 76.800,121.252 76.961,121.374 77.158 C 121.496 77.355,121.315 77.624,120.972 77.755 C 120.630 77.887,120.444 78.148,120.561 78.337 C 120.677 78.525,120.374 79.108,119.886 79.632 C 119.399 80.156,119.048 80.733,119.107 80.914 C 119.240 81.323,118.196 82.400,117.666 82.400 C 117.451 82.400,117.365 82.743,117.474 83.163 C 117.591 83.609,117.340 84.260,116.870 84.730 C 116.428 85.172,116.170 85.637,116.296 85.763 C 116.422 85.889,116.079 86.405,115.534 86.911 C 114.989 87.416,114.616 88.048,114.705 88.315 C 114.794 88.582,114.672 88.800,114.433 88.800 C 114.195 88.800,114.000 89.070,114.000 89.400 C 114.000 89.730,113.820 90.000,113.600 90.000 C 113.380 90.000,113.239 90.135,113.286 90.300 C 113.333 90.465,112.883 91.361,112.286 92.292 C 111.689 93.223,111.200 94.168,111.200 94.392 C 111.200 94.616,111.020 94.800,110.800 94.800 C 110.580 94.800,110.440 94.935,110.489 95.100 C 110.569 95.369,109.335 97.498,108.809 98.000 C 108.693 98.110,108.344 98.695,108.032 99.300 C 107.720 99.905,107.315 100.400,107.132 100.400 C 106.950 100.400,106.800 100.760,106.800 101.200 C 106.800 101.640,106.609 102.000,106.376 102.000 C 106.143 102.000,106.064 102.180,106.200 102.400 C 106.336 102.620,106.302 102.803,106.124 102.806 C 105.946 102.810,105.360 103.710,104.821 104.806 C 104.283 105.903,103.687 106.800,103.498 106.800 C 103.308 106.800,103.264 106.980,103.400 107.200 C 103.536 107.420,103.478 107.600,103.272 107.600 C 103.066 107.600,102.679 108.127,102.412 108.771 C 102.145 109.415,101.662 110.044,101.338 110.168 C 101.014 110.293,100.856 110.567,100.987 110.779 C 101.266 111.230,99.993 112.843,99.566 112.579 C 99.406 112.480,99.365 112.746,99.476 113.170 C 99.600 113.642,99.361 114.213,98.859 114.642 C 98.409 115.027,98.133 115.492,98.246 115.674 C 98.499 116.084,97.430 117.200,96.786 117.200 C 96.527 117.200,96.418 117.470,96.545 117.800 C 96.864 118.631,96.430 119.600,95.740 119.600 C 95.424 119.600,95.201 119.825,95.246 120.100 C 95.373 120.891,94.764 122.000,94.202 122.000 C 93.920 122.000,93.709 122.225,93.734 122.500 C 93.809 123.336,91.875 126.800,91.333 126.800 C 91.046 126.800,90.925 127.061,91.055 127.400 C 91.182 127.730,91.086 128.000,90.843 128.000 C 90.599 128.000,90.400 128.270,90.400 128.600 C 90.400 128.930,90.136 129.200,89.813 129.200 C 89.455 129.200,89.315 129.435,89.455 129.800 C 89.582 130.130,89.476 130.400,89.219 130.400 C 88.963 130.400,88.865 130.581,89.002 130.803 C 89.139 131.024,88.970 131.313,88.628 131.445 C 88.285 131.576,88.103 131.843,88.223 132.037 C 88.343 132.231,88.072 132.786,87.620 133.270 C 87.169 133.755,86.800 134.304,86.800 134.492 C 86.800 134.680,86.436 135.225,85.990 135.703 C 85.545 136.181,85.269 136.803,85.378 137.086 C 85.486 137.369,85.300 137.600,84.964 137.600 C 84.628 137.600,84.464 137.780,84.600 138.000 C 84.736 138.220,84.657 138.400,84.424 138.400 C 84.191 138.400,84.000 138.760,84.000 139.200 C 84.000 139.658,83.733 140.000,83.376 140.000 C 83.033 140.000,82.865 140.181,83.002 140.403 C 83.139 140.624,82.981 140.909,82.651 141.036 C 82.321 141.163,82.148 141.521,82.268 141.833 C 82.388 142.145,82.286 142.400,82.043 142.400 C 81.799 142.400,81.619 142.535,81.643 142.700 C 81.724 143.262,81.108 144.800,80.802 144.800 C 80.634 144.800,80.273 145.340,80.000 146.000 C 79.727 146.660,79.384 147.200,79.239 147.200 C 79.094 147.200,78.769 147.695,78.516 148.300 C 78.063 149.384,76.790 151.610,76.400 152.000 C 76.290 152.110,75.890 152.740,75.510 153.400 C 75.131 154.060,74.642 154.557,74.425 154.505 C 74.207 154.452,74.132 154.677,74.257 155.005 C 74.383 155.332,74.292 155.600,74.055 155.600 C 73.819 155.600,73.729 155.870,73.855 156.200 C 73.982 156.530,73.886 156.800,73.643 156.800 C 73.399 156.800,73.200 157.070,73.200 157.400 C 73.200 157.730,72.936 158.000,72.613 158.000 C 72.255 158.000,72.115 158.235,72.255 158.600 C 72.382 158.930,72.286 159.200,72.043 159.200 C 71.799 159.200,71.600 159.470,71.600 159.800 C 71.600 160.130,71.390 160.400,71.133 160.400 C 70.877 160.400,70.781 160.515,70.922 160.655 C 71.062 160.795,70.822 161.408,70.388 162.017 C 69.955 162.625,69.600 163.321,69.600 163.562 C 69.600 163.803,69.420 164.000,69.200 164.000 C 68.980 164.000,68.800 164.270,68.800 164.600 C 68.800 164.930,68.609 165.200,68.376 165.200 C 68.143 165.200,68.072 165.392,68.217 165.627 C 68.362 165.862,68.115 166.149,67.668 166.266 C 67.177 166.395,66.941 166.701,67.070 167.039 C 67.189 167.348,67.056 167.600,66.776 167.600 C 66.496 167.600,66.378 167.711,66.514 167.848 C 66.650 167.984,66.468 168.389,66.109 168.748 C 65.506 169.351,67.914 169.415,98.028 169.600 C 126.637 169.776,130.598 169.873,130.581 170.400 C 130.552 171.337,129.472 172.799,128.804 172.806 C 128.276 172.811,128.274 172.859,128.789 173.185 C 129.296 173.506,129.286 173.592,128.714 173.812 C 128.349 173.952,128.148 174.321,128.268 174.633 C 128.388 174.945,128.308 175.200,128.091 175.200 C 127.874 175.200,127.479 175.727,127.212 176.371 C 126.945 177.015,126.462 177.644,126.138 177.768 C 125.814 177.893,125.667 178.185,125.811 178.418 C 125.955 178.651,125.638 179.243,125.108 179.735 C 124.577 180.227,124.216 180.848,124.305 181.115 C 124.394 181.382,124.187 181.600,123.846 181.600 C 123.458 181.600,123.312 181.826,123.455 182.200 C 123.582 182.530,123.508 182.800,123.291 182.800 C 123.074 182.800,122.673 183.340,122.400 184.000 C 122.127 184.660,121.745 185.200,121.551 185.200 C 121.358 185.200,121.200 185.494,121.200 185.854 C 121.200 186.214,120.782 186.895,120.272 187.369 C 119.761 187.842,119.416 188.448,119.505 188.715 C 119.594 188.982,119.472 189.200,119.233 189.200 C 118.995 189.200,118.800 189.470,118.800 189.800 C 118.800 190.130,118.536 190.400,118.213 190.400 C 117.855 190.400,117.715 190.635,117.855 191.000 C 117.982 191.330,117.886 191.600,117.643 191.600 C 117.399 191.600,117.200 191.870,117.200 192.200 C 117.200 192.530,117.009 192.800,116.776 192.800 C 116.543 192.800,116.455 192.965,116.580 193.168 C 116.705 193.370,116.544 193.799,116.223 194.120 C 115.901 194.442,115.750 194.816,115.886 194.952 C 116.022 195.089,115.731 195.200,115.240 195.200 C 114.528 195.200,114.398 195.363,114.600 196.000 C 114.746 196.459,114.672 196.800,114.427 196.800 C 114.192 196.800,114.000 197.070,114.000 197.400 C 114.000 197.730,113.809 198.000,113.576 198.000 C 113.343 198.000,113.272 198.192,113.417 198.427 C 113.562 198.662,113.315 198.949,112.868 199.066 C 112.377 199.195,112.141 199.501,112.270 199.839 C 112.389 200.148,112.276 200.400,112.019 200.400 C 111.763 200.400,111.655 200.565,111.780 200.768 C 111.905 200.970,111.744 201.399,111.423 201.720 C 111.101 202.042,110.950 202.416,111.086 202.552 C 111.222 202.689,110.931 202.800,110.440 202.800 C 109.736 202.800,109.599 202.966,109.794 203.580 C 109.951 204.077,109.756 204.644,109.254 205.146 C 108.821 205.579,108.567 206.034,108.691 206.157 C 108.814 206.280,108.619 206.495,108.257 206.633 C 107.896 206.772,107.600 207.136,107.600 207.443 C 107.600 207.749,107.420 208.000,107.200 208.000 C 106.980 208.000,106.836 208.135,106.879 208.300 C 107.056 208.968,106.310 210.400,105.786 210.400 C 105.477 210.400,105.316 210.637,105.427 210.926 C 105.538 211.215,105.208 211.906,104.693 212.462 C 104.178 213.017,103.827 213.680,103.912 213.936 C 103.997 214.191,103.872 214.400,103.633 214.400 C 103.395 214.400,103.200 214.670,103.200 215.000 C 103.200 215.330,102.936 215.600,102.613 215.600 C 102.289 215.600,102.114 215.831,102.222 216.114 C 102.331 216.397,102.010 217.068,101.510 217.606 C 101.009 218.144,100.639 218.704,100.686 218.849 C 100.733 218.995,100.363 219.555,99.864 220.093 C 99.365 220.631,99.027 221.280,99.112 221.536 C 99.197 221.791,99.072 222.000,98.833 222.000 C 98.595 222.000,98.400 222.270,98.400 222.600 C 98.400 222.930,98.220 223.200,98.000 223.200 C 97.780 223.200,97.600 223.436,97.600 223.725 C 97.600 224.013,97.240 224.636,96.800 225.108 C 96.360 225.580,96.000 226.167,96.000 226.412 C 96.000 226.992,94.985 228.000,94.402 228.000 C 94.128 228.000,94.048 228.320,94.200 228.800 C 94.346 229.259,94.272 229.600,94.027 229.600 C 93.792 229.600,93.600 229.870,93.600 230.200 C 93.600 230.530,93.420 230.800,93.200 230.800 C 92.980 230.800,92.800 231.070,92.800 231.400 C 92.800 231.730,92.575 231.955,92.300 231.900 C 92.021 231.844,91.852 232.109,91.918 232.500 C 91.982 232.885,91.847 233.200,91.618 233.200 C 91.388 233.200,91.200 233.494,91.200 233.854 C 91.200 234.214,90.782 234.895,90.272 235.369 C 89.761 235.842,89.416 236.448,89.505 236.715 C 89.594 236.982,89.461 237.200,89.210 237.200 C 88.958 237.200,88.850 237.357,88.969 237.550 C 89.088 237.742,88.738 238.381,88.193 238.970 C 87.647 239.559,87.200 240.212,87.200 240.421 C 87.200 240.629,87.020 240.800,86.800 240.800 C 86.580 240.800,86.400 241.160,86.400 241.600 C 86.400 242.040,86.209 242.400,85.976 242.400 C 85.743 242.400,85.656 242.567,85.782 242.771 C 85.908 242.975,85.658 243.255,85.226 243.392 C 84.750 243.543,84.528 243.869,84.663 244.220 C 84.786 244.539,84.686 244.800,84.443 244.800 C 84.199 244.800,84.038 244.935,84.085 245.100 C 84.256 245.704,83.154 247.200,82.537 247.200 C 82.060 247.200,82.010 247.330,82.335 247.722 C 82.658 248.111,82.525 248.504,81.808 249.279 C 81.279 249.848,80.957 250.423,81.090 250.557 C 81.224 250.691,81.159 250.800,80.945 250.800 C 80.732 250.800,80.117 251.697,79.579 252.794 C 79.040 253.890,78.356 254.790,78.057 254.794 C 77.753 254.797,77.610 255.050,77.733 255.370 C 77.853 255.683,77.488 256.403,76.921 256.970 C 76.355 257.536,76.050 258.005,76.245 258.012 C 76.440 258.019,76.281 258.210,75.892 258.437 C 75.502 258.664,75.293 259.027,75.428 259.245 C 75.562 259.463,75.238 260.043,74.708 260.535 C 74.177 261.027,73.816 261.648,73.905 261.915 C 73.994 262.182,73.916 262.400,73.731 262.400 C 73.546 262.400,73.156 262.940,72.864 263.600 C 72.572 264.260,72.067 264.800,71.743 264.800 C 71.418 264.800,71.260 264.973,71.390 265.184 C 71.679 265.652,70.884 267.128,69.800 268.134 C 69.360 268.542,69.053 269.129,69.118 269.438 C 69.182 269.747,69.047 270.000,68.818 270.000 C 68.588 270.000,68.400 270.236,68.400 270.525 C 68.400 270.813,68.040 271.436,67.600 271.908 C 67.160 272.380,66.800 272.954,66.800 273.183 C 66.800 273.412,66.620 273.600,66.400 273.600 C 66.180 273.600,66.000 273.920,66.000 274.312 C 66.000 274.703,65.640 275.283,65.200 275.600 C 64.760 275.917,64.400 276.497,64.400 276.888 C 64.400 277.280,64.220 277.600,64.000 277.600 C 63.780 277.600,63.600 277.836,63.600 278.125 C 63.600 278.413,63.240 279.036,62.800 279.508 C 62.360 279.980,62.000 280.644,62.000 280.983 C 62.000 281.322,61.820 281.600,61.600 281.600 C 61.380 281.600,61.200 281.870,61.200 282.200 C 61.200 282.530,61.042 282.800,60.849 282.800 C 60.655 282.800,60.273 283.340,60.000 284.000 C 59.727 284.660,59.315 285.200,59.085 285.200 C 58.855 285.200,58.774 285.307,58.904 285.438 C 59.035 285.568,58.525 286.640,57.771 287.818 C 57.017 288.997,56.400 290.060,56.400 290.181 C 56.400 290.301,68.415 290.405,83.100 290.412 C 101.026 290.420,109.575 290.555,109.117 290.823 C 108.741 291.042,108.530 291.473,108.648 291.780 C 108.844 292.291,107.764 293.204,107.133 293.061 C 106.987 293.027,106.732 293.135,106.567 293.300 C 106.402 293.465,106.471 293.600,106.721 293.600 C 106.971 293.600,107.071 293.870,106.945 294.200 C 106.818 294.530,106.464 294.800,106.157 294.800 C 105.851 294.800,105.600 295.070,105.600 295.400 C 105.600 295.730,105.240 296.360,104.800 296.800 C 104.360 297.240,104.000 297.778,104.000 297.997 C 104.000 298.215,103.640 298.618,103.200 298.893 C 102.760 299.168,102.400 299.613,102.400 299.882 C 102.400 300.151,102.040 300.565,101.600 300.800 C 101.160 301.035,100.800 301.486,100.800 301.801 C 100.800 302.117,100.305 302.643,99.700 302.971 C 99.095 303.299,98.831 303.575,99.114 303.584 C 99.862 303.607,98.947 305.200,98.186 305.200 C 97.864 305.200,97.600 305.554,97.600 305.986 C 97.600 306.418,97.242 306.964,96.804 307.198 C 96.366 307.432,96.051 307.829,96.104 308.079 C 96.157 308.330,95.840 308.734,95.400 308.978 C 94.960 309.222,94.545 309.687,94.478 310.011 C 94.411 310.335,94.051 310.833,93.678 311.117 C 93.305 311.402,93.000 311.821,93.000 312.049 C 93.000 312.278,92.640 312.728,92.200 313.049 C 91.760 313.371,91.378 313.807,91.350 314.017 C 91.323 314.228,91.278 314.580,91.250 314.800 C 91.223 315.020,90.851 315.200,90.424 315.200 C 89.997 315.200,89.519 315.408,89.362 315.662 C 89.172 315.969,89.254 316.014,89.606 315.796 C 89.996 315.555,90.065 315.653,89.868 316.167 C 89.721 316.551,89.600 316.941,89.600 317.033 C 89.600 317.125,89.330 317.200,89.000 317.200 C 88.670 317.200,88.377 317.380,88.350 317.600 C 88.323 317.820,88.278 318.220,88.250 318.488 C 88.223 318.757,87.825 319.163,87.368 319.391 C 86.910 319.620,86.607 320.021,86.694 320.283 C 86.782 320.545,86.481 320.992,86.027 321.276 C 85.572 321.560,85.200 322.018,85.200 322.293 C 85.200 322.568,84.840 323.018,84.400 323.293 C 83.960 323.568,83.600 324.114,83.600 324.506 C 83.600 324.899,83.153 325.390,82.608 325.597 C 81.929 325.855,81.692 326.175,81.860 326.611 C 82.025 327.043,81.829 327.319,81.252 327.471 C 80.745 327.603,80.400 328.014,80.400 328.484 C 80.400 328.938,80.060 329.364,79.600 329.484 C 79.159 329.599,78.800 330.030,78.800 330.443 C 78.800 330.856,78.440 331.418,78.000 331.693 C 77.560 331.968,77.200 332.418,77.200 332.693 C 77.200 332.968,76.840 333.418,76.400 333.693 C 75.960 333.968,75.600 334.509,75.600 334.896 C 75.600 335.345,75.295 335.600,74.757 335.600 C 74.176 335.600,73.985 335.784,74.143 336.195 C 74.441 336.971,72.577 339.052,72.243 338.317 C 72.113 338.032,72.112 338.218,72.240 338.728 C 72.418 339.443,72.278 339.707,71.629 339.876 C 71.150 340.002,70.833 340.368,70.894 340.726 C 70.952 341.072,70.596 341.562,70.102 341.814 C 69.609 342.065,69.330 342.397,69.483 342.550 C 69.636 342.703,69.294 343.261,68.724 343.790 C 68.153 344.320,67.567 344.634,67.422 344.489 C 67.277 344.343,67.271 344.520,67.410 344.882 C 67.574 345.310,67.374 345.693,66.835 345.981 C 66.380 346.225,66.027 346.554,66.051 346.712 C 66.185 347.600,65.907 348.000,65.157 348.000 C 64.566 348.000,64.384 348.182,64.549 348.611 C 64.682 348.958,64.441 349.515,63.992 349.900 C 63.556 350.273,63.200 350.798,63.200 351.066 C 63.200 351.335,62.873 351.790,62.474 352.077 C 62.074 352.365,61.623 352.932,61.472 353.338 C 61.320 353.744,60.849 354.167,60.426 354.277 C 59.992 354.391,59.744 354.711,59.859 355.009 C 59.971 355.300,59.688 355.739,59.231 355.983 C 58.774 356.228,58.400 356.770,58.400 357.187 C 58.400 357.605,58.040 358.060,57.600 358.200 C 57.147 358.344,56.800 358.805,56.800 359.264 C 56.800 359.727,56.471 360.161,56.034 360.275 C 55.613 360.385,55.159 360.909,55.026 361.438 C 54.893 361.967,54.518 362.400,54.192 362.400 C 53.867 362.400,53.600 362.738,53.600 363.151 C 53.600 364.033,52.671 364.924,52.199 364.497 C 52.019 364.333,52.000 364.423,52.157 364.697 C 52.322 364.983,52.035 365.601,51.480 366.157 C 50.950 366.687,50.406 367.408,50.271 367.760 C 50.136 368.112,49.742 368.400,49.395 368.400 C 49.048 368.400,48.794 368.625,48.830 368.900 C 48.970 369.982,48.762 370.323,47.814 370.561 C 47.108 370.738,46.900 370.994,47.079 371.462 C 47.233 371.863,47.035 372.332,46.565 372.675 C 46.144 372.983,45.800 373.452,45.800 373.717 C 45.800 373.983,45.393 374.379,44.895 374.597 C 44.396 374.816,44.076 375.222,44.183 375.501 C 44.290 375.779,44.023 376.229,43.589 376.500 C 43.155 376.771,42.800 377.209,42.800 377.474 C 42.800 377.738,42.462 378.192,42.048 378.482 C 41.634 378.771,41.227 379.367,41.144 379.804 C 41.056 380.266,40.611 380.654,40.085 380.729 C 39.586 380.800,39.205 381.070,39.237 381.329 C 39.364 382.358,39.173 382.800,38.600 382.800 C 38.270 382.800,38.000 383.070,38.000 383.400 C 38.000 383.730,37.658 384.342,37.239 384.761 C 36.821 385.179,36.359 385.899,36.213 386.361 C 36.065 386.825,35.607 387.200,35.186 387.200 C 34.688 387.200,34.502 387.399,34.646 387.776 C 34.771 388.102,34.506 388.577,34.033 388.872 C 33.575 389.158,33.200 389.697,33.200 390.069 C 33.200 390.442,32.851 390.857,32.425 390.992 C 31.999 391.127,31.594 391.634,31.525 392.119 C 31.445 392.684,31.071 393.047,30.483 393.130 C 29.769 393.231,29.621 393.437,29.818 394.058 C 30.008 394.655,29.856 394.913,29.213 395.081 C 28.724 395.208,28.440 395.528,28.554 395.823 C 28.799 396.464,27.788 397.363,27.218 397.011 C 26.969 396.857,26.800 397.166,26.800 397.773 C 26.800 398.360,26.460 399.005,26.000 399.293 C 25.560 399.568,25.200 400.013,25.200 400.282 C 25.200 400.551,24.835 400.967,24.389 401.206 C 23.943 401.445,23.674 401.797,23.792 401.988 C 24.098 402.482,22.820 403.660,22.316 403.348 C 22.075 403.199,21.981 403.326,22.094 403.644 C 22.371 404.421,21.692 405.600,20.968 405.600 C 20.617 405.600,20.414 405.890,20.482 406.296 C 20.552 406.708,20.231 407.156,19.698 407.392 C 17.575 408.332,19.284 408.603,28.013 408.708 C 37.010 408.816,39.600 408.475,39.600 407.181 C 39.600 406.972,39.851 406.800,40.157 406.800 C 40.464 406.800,40.818 406.530,40.945 406.200 C 41.071 405.870,41.431 405.600,41.745 405.600 C 42.058 405.600,42.425 405.311,42.561 404.958 C 42.701 404.592,43.063 404.415,43.403 404.546 C 43.757 404.682,44.000 404.547,44.000 404.214 C 44.000 403.906,44.360 403.540,44.800 403.400 C 45.240 403.260,45.600 402.978,45.600 402.773 C 45.600 402.568,45.941 402.400,46.357 402.400 C 46.774 402.400,47.225 402.111,47.361 401.758 C 47.496 401.406,47.857 401.213,48.164 401.331 C 48.499 401.459,48.806 401.220,48.934 400.732 C 49.051 400.285,49.306 400.018,49.502 400.139 C 49.697 400.260,50.134 400.053,50.472 399.680 C 51.631 398.397,52.838 397.576,53.219 397.812 C 53.428 397.941,53.600 397.767,53.600 397.424 C 53.600 396.863,53.850 396.725,54.664 396.836 C 54.809 396.856,55.088 396.586,55.284 396.236 C 55.480 395.886,55.882 395.600,56.177 395.600 C 56.473 395.600,56.825 395.311,56.961 394.958 C 57.101 394.592,57.463 394.415,57.803 394.546 C 58.157 394.682,58.400 394.547,58.400 394.214 C 58.400 393.906,58.760 393.540,59.200 393.400 C 59.640 393.260,60.000 392.978,60.000 392.773 C 60.000 392.568,60.270 392.400,60.600 392.400 C 60.930 392.400,61.200 392.223,61.200 392.008 C 61.200 391.792,61.650 391.502,62.200 391.364 C 62.750 391.226,63.200 390.863,63.200 390.557 C 63.200 390.250,63.392 390.000,63.627 390.000 C 63.861 390.000,64.643 389.550,65.364 389.000 C 66.086 388.450,66.974 388.000,67.338 388.000 C 67.702 388.000,68.000 387.769,68.000 387.486 C 68.000 387.204,68.585 386.633,69.300 386.218 C 70.015 385.802,70.748 385.216,70.930 384.914 C 71.124 384.590,71.576 384.465,72.030 384.609 C 72.491 384.756,72.800 384.666,72.800 384.385 C 72.800 383.904,74.572 382.329,75.022 382.409 C 75.160 382.433,75.499 382.144,75.776 381.766 C 76.052 381.387,76.473 381.198,76.711 381.345 C 76.949 381.492,77.261 381.237,77.407 380.777 C 77.567 380.274,77.896 380.028,78.236 380.159 C 78.546 380.278,78.800 380.151,78.800 379.878 C 78.800 379.605,79.475 379.030,80.300 378.601 C 81.125 378.171,82.329 377.320,82.976 376.710 C 83.623 376.099,84.368 375.600,84.633 375.600 C 84.898 375.600,85.221 375.322,85.352 374.981 C 85.482 374.641,85.842 374.416,86.152 374.481 C 86.461 374.547,87.175 374.105,87.738 373.500 C 88.301 372.895,88.939 372.400,89.156 372.400 C 89.373 372.400,90.142 371.860,90.864 371.200 C 91.587 370.540,92.331 370.000,92.518 370.000 C 92.704 370.000,93.129 369.728,93.461 369.396 C 93.793 369.064,94.217 368.887,94.403 369.002 C 94.590 369.117,94.855 368.858,94.992 368.426 C 95.143 367.950,95.469 367.728,95.820 367.863 C 96.178 368.001,96.400 367.840,96.400 367.443 C 96.400 366.865,96.646 366.725,97.464 366.836 C 97.609 366.856,97.888 366.586,98.084 366.236 C 98.280 365.886,98.682 365.600,98.977 365.600 C 99.273 365.600,99.618 365.330,99.745 365.000 C 99.871 364.670,100.251 364.400,100.587 364.400 C 100.924 364.400,101.200 364.239,101.200 364.043 C 101.200 363.846,101.479 363.578,101.821 363.447 C 102.177 363.311,102.337 363.378,102.197 363.605 C 102.063 363.822,102.143 364.000,102.376 364.000 C 102.609 364.000,102.800 363.640,102.800 363.200 C 102.800 362.756,103.067 362.400,103.400 362.400 C 103.730 362.400,104.000 362.223,104.000 362.008 C 104.000 361.792,104.450 361.502,105.000 361.364 C 105.550 361.226,106.000 360.863,106.000 360.557 C 106.000 360.250,106.341 360.000,106.757 360.000 C 107.174 360.000,107.625 359.711,107.761 359.358 C 107.896 359.005,108.265 358.816,108.583 358.938 C 108.927 359.070,109.256 358.853,109.400 358.400 C 109.545 357.945,109.873 357.730,110.220 357.863 C 110.578 358.001,110.800 357.840,110.800 357.443 C 110.800 356.864,111.260 356.620,112.100 356.753 C 112.265 356.779,112.400 356.530,112.400 356.200 C 112.400 355.870,112.648 355.600,112.951 355.600 C 113.254 355.600,113.721 355.336,113.989 355.013 C 114.257 354.690,114.594 354.463,114.738 354.510 C 114.882 354.556,115.602 354.055,116.338 353.397 C 117.074 352.739,117.846 352.200,118.053 352.200 C 118.260 352.200,118.582 351.952,118.770 351.649 C 118.957 351.346,119.323 351.229,119.582 351.389 C 119.872 351.568,120.138 351.357,120.274 350.840 C 120.394 350.378,120.742 350.000,121.047 350.000 C 121.351 350.000,121.601 349.865,121.603 349.700 C 121.606 349.331,124.080 347.827,124.511 347.932 C 124.682 347.973,124.927 347.736,125.054 347.404 C 125.181 347.072,125.536 346.800,125.843 346.800 C 126.149 346.800,126.400 346.608,126.400 346.373 C 126.400 346.131,126.789 346.043,127.300 346.169 C 127.795 346.292,127.986 346.293,127.725 346.171 C 127.191 345.922,128.485 344.400,129.231 344.400 C 129.468 344.400,130.203 343.859,130.864 343.197 C 131.526 342.536,132.213 342.085,132.392 342.195 C 132.570 342.305,132.827 342.108,132.961 341.756 C 133.097 341.404,133.465 341.216,133.783 341.338 C 134.130 341.471,134.458 341.249,134.606 340.780 C 134.743 340.351,135.035 340.000,135.256 340.000 C 135.476 340.000,135.929 339.728,136.261 339.396 C 136.593 339.064,137.011 338.883,137.190 338.994 C 137.370 339.105,137.619 338.926,137.746 338.598 C 137.872 338.269,138.207 338.000,138.491 338.000 C 138.775 338.000,139.237 337.633,139.517 337.184 C 139.797 336.736,140.200 336.477,140.413 336.608 C 140.626 336.740,140.800 336.652,140.800 336.414 C 140.800 336.175,141.250 335.809,141.800 335.600 C 142.350 335.391,142.800 335.016,142.800 334.767 C 142.800 334.518,143.070 334.418,143.400 334.545 C 143.765 334.685,144.000 334.545,144.000 334.187 C 144.000 333.864,144.152 333.600,144.339 333.600 C 144.525 333.600,145.088 333.244,145.590 332.808 C 146.092 332.373,146.641 332.102,146.810 332.206 C 146.978 332.310,147.227 332.108,147.361 331.756 C 147.501 331.392,147.863 331.215,148.203 331.346 C 148.569 331.486,148.800 331.342,148.800 330.975 C 148.800 330.645,149.115 330.257,149.500 330.112 C 149.885 329.968,150.398 329.586,150.639 329.264 C 150.881 328.941,151.273 328.798,151.511 328.945 C 151.748 329.092,152.055 328.858,152.192 328.426 C 152.343 327.950,152.669 327.728,153.020 327.863 C 153.378 328.001,153.600 327.840,153.600 327.443 C 153.600 326.865,153.846 326.725,154.664 326.836 C 154.809 326.856,155.088 326.586,155.284 326.236 C 155.480 325.886,155.901 325.600,156.220 325.600 C 156.539 325.600,156.800 325.414,156.800 325.187 C 156.800 324.961,157.115 324.655,157.500 324.508 C 158.296 324.204,158.972 323.700,159.899 322.720 C 160.253 322.347,160.688 322.131,160.865 322.240 C 161.043 322.350,161.725 321.891,162.381 321.220 C 163.036 320.549,163.737 320.000,163.938 320.000 C 164.138 320.000,164.533 319.722,164.815 319.382 C 165.097 319.042,165.569 318.856,165.864 318.969 C 166.162 319.084,166.400 318.914,166.400 318.587 C 166.400 318.264,166.760 318.000,167.200 318.000 C 167.640 318.000,168.000 317.745,168.000 317.433 C 168.000 317.121,168.715 316.536,169.590 316.133 C 170.464 315.730,171.184 315.175,171.190 314.900 C 171.195 314.625,171.459 314.400,171.775 314.400 C 172.092 314.400,172.926 313.875,173.628 313.233 C 174.331 312.591,175.152 312.160,175.453 312.276 C 175.776 312.400,176.000 312.222,176.000 311.843 C 176.000 311.467,176.332 311.200,176.800 311.200 C 177.244 311.200,177.600 310.933,177.600 310.600 C 177.600 310.270,177.793 310.000,178.029 310.000 C 178.264 310.000,178.719 309.738,179.040 309.417 C 179.361 309.096,179.888 308.936,180.212 309.060 C 180.579 309.201,180.800 309.044,180.800 308.643 C 180.800 308.289,181.064 308.000,181.386 308.000 C 181.708 308.000,182.167 307.635,182.406 307.189 C 182.645 306.743,182.992 306.472,183.178 306.586 C 183.364 306.701,183.619 306.526,183.746 306.198 C 183.872 305.869,184.341 305.600,184.787 305.600 C 185.262 305.600,185.600 305.337,185.600 304.967 C 185.600 304.618,185.803 304.401,186.051 304.484 C 186.299 304.566,187.118 304.036,187.870 303.305 C 188.623 302.575,189.391 302.071,189.577 302.186 C 189.764 302.301,190.019 302.126,190.146 301.798 C 190.272 301.469,190.751 301.200,191.211 301.200 C 191.671 301.200,191.935 301.019,191.798 300.797 C 191.661 300.576,191.876 300.271,192.275 300.120 C 192.674 299.968,193.240 299.608,193.532 299.319 C 193.825 299.029,194.242 298.902,194.459 299.037 C 194.676 299.171,194.949 298.915,195.066 298.468 C 195.195 297.977,195.501 297.741,195.839 297.870 C 196.177 298.000,196.400 297.830,196.400 297.443 C 196.400 296.864,196.860 296.620,197.700 296.753 C 197.865 296.779,198.000 296.616,198.000 296.390 C 198.000 296.165,198.450 295.809,199.000 295.600 C 199.550 295.391,200.000 295.035,200.000 294.810 C 200.000 294.584,200.193 294.400,200.429 294.400 C 200.664 294.400,201.108 294.175,201.415 293.900 C 202.792 292.665,203.203 292.400,203.740 292.400 C 204.056 292.400,204.425 292.111,204.561 291.758 C 204.700 291.395,205.063 291.215,205.399 291.344 C 205.724 291.469,205.948 291.381,205.895 291.148 C 205.843 290.916,206.156 290.517,206.591 290.263 C 207.026 290.008,207.596 289.530,207.858 289.201 C 208.120 288.871,208.453 288.720,208.598 288.864 C 208.742 289.009,209.493 288.513,210.266 287.762 C 211.039 287.011,211.817 286.487,211.994 286.596 C 212.171 286.706,212.419 286.526,212.546 286.198 C 212.672 285.869,213.031 285.600,213.345 285.600 C 213.658 285.600,214.019 285.328,214.146 284.996 C 214.273 284.664,214.518 284.435,214.689 284.486 C 214.860 284.538,215.521 284.090,216.158 283.490 C 216.796 282.891,217.651 282.400,218.058 282.400 C 218.473 282.400,218.800 282.116,218.800 281.757 C 218.800 281.360,219.022 281.199,219.380 281.337 C 219.715 281.465,220.050 281.271,220.176 280.876 C 220.381 280.229,221.338 279.560,222.900 278.971 C 223.285 278.826,223.600 278.548,223.600 278.353 C 223.600 278.159,223.825 277.997,224.100 277.993 C 224.375 277.989,225.026 277.538,225.546 276.989 C 226.066 276.441,226.921 275.885,227.446 275.753 C 227.971 275.621,228.400 275.244,228.400 274.914 C 228.400 274.548,228.632 274.403,228.994 274.542 C 229.347 274.678,229.765 274.439,230.025 273.954 C 230.308 273.424,230.692 273.226,231.118 273.390 C 231.480 273.529,231.648 273.514,231.491 273.358 C 231.051 272.918,231.987 272.020,232.629 272.267 C 232.978 272.400,233.200 272.235,233.200 271.843 C 233.200 271.489,233.476 271.200,233.813 271.200 C 234.149 271.200,234.529 270.930,234.655 270.600 C 234.782 270.270,235.059 270.000,235.271 270.000 C 235.484 270.000,235.919 269.738,236.240 269.417 C 236.561 269.096,237.088 268.936,237.412 269.060 C 237.767 269.196,238.000 269.050,238.000 268.689 C 238.000 268.112,239.419 266.934,240.164 266.892 C 240.364 266.881,240.688 266.586,240.884 266.236 C 241.080 265.886,241.591 265.600,242.020 265.600 C 242.470 265.600,242.800 265.328,242.800 264.957 C 242.800 264.550,243.020 264.399,243.400 264.545 C 243.731 264.672,244.001 264.556,244.003 264.287 C 244.005 263.837,246.196 262.286,246.915 262.226 C 247.088 262.212,247.382 261.952,247.570 261.649 C 247.757 261.346,248.115 261.224,248.365 261.378 C 248.617 261.534,248.771 261.451,248.710 261.193 C 248.649 260.936,248.956 260.517,249.391 260.263 C 249.826 260.008,250.396 259.530,250.658 259.201 C 250.920 258.871,251.253 258.720,251.398 258.864 C 251.542 259.009,252.293 258.513,253.066 257.762 C 253.839 257.011,254.636 256.498,254.836 256.622 C 255.036 256.746,255.200 256.652,255.200 256.414 C 255.200 256.175,255.650 255.809,256.200 255.600 C 256.750 255.391,257.200 255.035,257.200 254.810 C 257.200 254.584,257.393 254.400,257.629 254.400 C 257.864 254.400,258.329 254.128,258.661 253.796 C 258.993 253.464,259.417 253.287,259.603 253.402 C 259.790 253.517,260.062 253.236,260.207 252.777 C 260.367 252.274,260.696 252.028,261.036 252.159 C 261.375 252.289,261.600 252.122,261.600 251.741 C 261.600 251.304,261.848 251.172,262.400 251.316 C 262.877 251.441,263.200 251.328,263.200 251.038 C 263.200 250.522,265.309 248.800,265.941 248.800 C 266.146 248.800,266.418 248.530,266.545 248.200 C 266.671 247.870,267.031 247.600,267.345 247.600 C 267.658 247.600,268.019 247.327,268.147 246.994 C 268.354 246.455,264.211 246.400,230.590 246.494 C 209.805 246.552,192.800 246.493,192.800 246.362 C 192.800 245.966,194.231 244.800,194.717 244.800 C 194.967 244.800,195.363 244.442,195.597 244.005 C 195.832 243.567,196.468 243.098,197.012 242.961 C 197.555 242.825,198.000 242.469,198.000 242.171 C 198.000 241.561,199.363 240.696,199.736 241.070 C 199.869 241.202,200.158 240.836,200.379 240.255 C 200.619 239.623,201.087 239.200,201.544 239.200 C 201.964 239.200,202.602 238.751,202.962 238.203 C 203.321 237.654,203.770 237.249,203.959 237.303 C 204.149 237.356,204.820 236.903,205.452 236.296 C 207.979 233.865,208.301 233.600,208.733 233.600 C 208.980 233.600,209.478 233.147,209.841 232.594 C 210.203 232.041,210.791 231.636,211.146 231.694 C 211.502 231.752,211.968 231.405,212.182 230.922 C 212.396 230.439,212.977 229.942,213.474 229.817 C 213.971 229.693,214.568 229.233,214.803 228.795 C 215.037 228.358,215.421 228.000,215.657 228.000 C 215.892 228.000,216.447 227.539,216.891 226.976 C 217.334 226.412,217.945 226.047,218.248 226.163 C 218.552 226.280,218.800 226.138,218.800 225.849 C 218.800 225.233,220.166 223.900,220.478 224.212 C 220.596 224.329,220.990 223.969,221.355 223.412 C 221.720 222.856,222.374 222.400,222.809 222.400 C 223.244 222.400,223.600 222.136,223.600 221.814 C 223.600 221.492,224.005 221.015,224.500 220.755 C 224.995 220.495,225.837 219.852,226.370 219.325 C 226.904 218.799,227.579 218.460,227.870 218.572 C 228.189 218.694,228.400 218.488,228.400 218.055 C 228.400 217.659,228.895 217.080,229.500 216.768 C 230.105 216.455,230.835 215.885,231.123 215.500 C 231.410 215.115,231.899 214.800,232.209 214.800 C 232.518 214.800,232.963 214.442,233.197 214.005 C 233.432 213.567,234.051 213.102,234.574 212.971 C 235.097 212.840,235.617 212.376,235.731 211.941 C 235.860 211.449,236.212 211.198,236.665 211.275 C 237.112 211.352,237.547 211.052,237.793 210.496 C 238.013 209.999,238.554 209.479,238.996 209.341 C 239.438 209.202,240.250 208.662,240.800 208.140 C 241.350 207.618,242.179 206.833,242.642 206.396 C 243.105 205.958,243.658 205.600,243.870 205.600 C 244.082 205.600,244.647 205.150,245.125 204.600 C 245.603 204.050,246.254 203.600,246.570 203.600 C 246.887 203.600,247.260 203.240,247.400 202.800 C 247.540 202.360,247.981 202.000,248.381 202.000 C 248.781 202.000,249.403 201.550,249.763 201.000 C 250.124 200.450,250.664 200.000,250.963 200.000 C 251.263 200.000,251.812 199.536,252.184 198.969 C 252.581 198.363,253.095 198.028,253.430 198.156 C 253.743 198.276,254.000 198.170,254.000 197.919 C 254.000 197.214,255.220 196.033,255.740 196.232 C 255.996 196.331,256.384 196.004,256.603 195.505 C 256.821 195.007,257.405 194.542,257.900 194.472 C 258.395 194.402,258.800 194.071,258.800 193.737 C 258.800 193.404,259.340 192.927,260.000 192.678 C 260.660 192.428,261.200 192.009,261.200 191.746 C 261.200 191.483,261.740 191.028,262.400 190.736 C 263.060 190.444,263.600 189.974,263.600 189.692 C 263.600 189.411,264.104 189.079,264.720 188.956 C 265.339 188.832,266.010 188.345,266.220 187.866 C 266.429 187.390,267.005 186.942,267.500 186.872 C 267.995 186.802,268.400 186.470,268.400 186.135 C 268.400 185.799,268.752 185.433,269.181 185.321 C 269.611 185.208,270.249 184.679,270.599 184.145 C 270.950 183.610,271.541 183.224,271.914 183.287 C 272.305 183.352,272.762 183.017,272.993 182.496 C 273.213 181.999,273.748 181.480,274.181 181.342 C 274.615 181.205,275.306 180.665,275.717 180.142 C 276.128 179.620,276.610 179.283,276.788 179.393 C 276.967 179.503,277.406 179.145,277.765 178.597 C 278.125 178.048,278.664 177.600,278.963 177.600 C 279.263 177.600,279.812 177.136,280.184 176.569 C 280.555 176.001,281.094 175.627,281.380 175.737 C 281.668 175.848,282.097 175.505,282.342 174.968 C 282.599 174.404,283.124 174.000,283.600 174.000 C 284.083 174.000,284.603 173.592,284.873 173.000 C 285.123 172.450,285.660 172.000,286.064 172.000 C 286.469 172.000,286.800 171.760,286.800 171.468 C 286.800 171.175,287.295 170.680,287.900 170.368 C 288.505 170.055,289.328 169.395,289.729 168.900 C 290.130 168.405,290.672 168.000,290.933 168.000 C 291.194 168.000,291.632 167.640,291.907 167.200 C 292.182 166.760,292.765 166.400,293.203 166.400 C 293.664 166.400,294.000 166.132,294.000 165.765 C 294.000 165.416,294.540 164.927,295.200 164.678 C 295.860 164.428,296.400 164.016,296.400 163.761 C 296.400 163.506,296.940 163.073,297.600 162.800 C 298.260 162.527,298.800 162.055,298.800 161.751 C 298.800 161.227,299.019 161.129,300.400 161.039 C 300.730 161.018,301.056 160.604,301.125 160.119 C 301.194 159.634,301.605 159.125,302.038 158.988 C 302.471 158.850,303.271 158.292,303.816 157.747 C 304.361 157.203,304.985 156.867,305.203 157.002 C 305.422 157.137,305.600 156.951,305.600 156.589 C 305.600 156.225,306.136 155.728,306.800 155.478 C 307.460 155.228,308.000 154.800,308.000 154.526 C 308.000 153.953,309.377 153.110,309.732 153.466 C 309.863 153.596,310.186 153.230,310.449 152.652 C 310.907 151.646,311.249 151.440,312.252 151.559 C 312.500 151.589,312.798 151.251,312.914 150.808 C 313.029 150.366,313.456 149.882,313.862 149.733 C 314.268 149.584,314.960 149.127,315.400 148.718 C 318.076 146.231,318.881 145.603,319.165 145.778 C 319.340 145.886,319.685 145.531,319.933 144.987 C 320.205 144.391,320.717 144.000,321.229 144.000 C 321.740 144.000,322.158 143.682,322.285 143.196 C 322.401 142.753,322.929 142.283,323.458 142.150 C 323.988 142.017,324.609 141.558,324.838 141.130 C 325.067 140.702,325.467 140.423,325.727 140.511 C 325.987 140.599,326.512 140.160,326.894 139.535 C 327.276 138.911,327.840 138.400,328.148 138.400 C 328.456 138.400,329.003 137.950,329.363 137.400 C 329.724 136.850,330.374 136.400,330.809 136.400 C 331.245 136.400,331.600 136.131,331.600 135.800 C 331.600 135.470,331.740 135.200,331.911 135.200 C 332.082 135.200,332.813 134.660,333.536 134.000 L 334.849 132.800 267.625 132.800 C 208.854 132.800,200.400 132.726,200.400 132.214 C 200.400 131.548,201.756 130.689,202.163 131.097 C 202.311 131.244,202.536 130.968,202.663 130.483 C 202.789 129.997,203.052 129.578,203.247 129.550 C 203.643 129.494,204.249 129.349,204.700 129.203 C 204.865 129.149,205.129 129.124,205.286 129.148 C 205.443 129.171,205.469 128.924,205.344 128.599 C 205.208 128.245,205.416 127.893,205.858 127.725 C 206.266 127.569,206.931 127.024,207.336 126.512 C 207.741 126.000,208.281 125.630,208.536 125.688 C 208.791 125.747,209.000 125.688,209.000 125.559 C 209.000 124.983,210.166 124.000,210.849 124.000 C 211.262 124.000,211.600 123.807,211.600 123.571 C 211.600 122.934,212.653 122.000,213.371 122.000 C 213.717 122.000,214.000 121.742,214.000 121.427 C 214.000 121.112,214.332 120.749,214.737 120.620 C 215.142 120.491,215.881 119.952,216.379 119.422 C 216.878 118.892,217.536 118.554,217.843 118.672 C 218.149 118.789,218.400 118.656,218.400 118.374 C 218.400 117.564,219.620 116.433,220.238 116.670 C 220.574 116.799,220.800 116.633,220.800 116.257 C 220.800 115.583,222.136 114.669,222.536 115.070 C 222.669 115.202,222.958 114.836,223.179 114.255 C 223.438 113.573,223.880 113.200,224.428 113.200 C 224.934 113.200,225.358 112.883,225.481 112.413 C 225.594 111.981,226.072 111.505,226.543 111.356 C 227.014 111.207,227.635 110.751,227.923 110.343 C 228.210 109.934,228.684 109.600,228.977 109.600 C 229.269 109.600,229.803 109.150,230.163 108.600 C 230.524 108.050,231.019 107.600,231.263 107.600 C 231.508 107.600,232.135 107.140,232.656 106.577 C 233.177 106.015,233.756 105.649,233.943 105.765 C 234.130 105.880,234.485 105.531,234.733 104.987 C 234.980 104.444,235.503 104.000,235.895 104.000 C 236.287 104.000,236.832 103.640,237.107 103.200 C 237.382 102.760,237.875 102.400,238.203 102.400 C 238.532 102.400,238.800 102.173,238.800 101.896 C 238.800 101.257,240.307 100.295,240.816 100.610 C 241.027 100.740,241.200 100.626,241.200 100.355 C 241.200 99.622,242.406 98.428,242.940 98.632 C 243.196 98.731,243.584 98.404,243.803 97.905 C 244.021 97.407,244.587 96.945,245.059 96.878 C 245.532 96.810,246.014 96.389,246.131 95.942 C 246.290 95.335,246.551 95.194,247.159 95.387 C 247.802 95.591,248.027 95.430,248.230 94.623 C 248.476 93.641,248.813 93.429,249.900 93.570 C 250.175 93.606,250.400 93.370,250.400 93.046 C 250.400 92.316,251.548 91.121,251.988 91.393 C 252.167 91.503,252.606 91.145,252.965 90.597 C 253.325 90.048,253.819 89.600,254.063 89.600 C 254.308 89.600,254.935 89.140,255.456 88.577 C 255.977 88.015,256.556 87.649,256.743 87.765 C 256.930 87.880,257.285 87.531,257.533 86.987 C 257.805 86.391,258.317 86.000,258.829 86.000 C 259.338 86.000,259.758 85.682,259.884 85.200 C 259.999 84.760,260.361 84.400,260.689 84.400 C 261.017 84.400,261.639 83.950,262.071 83.400 C 262.504 82.850,263.044 82.400,263.271 82.400 C 263.499 82.400,264.045 81.942,264.486 81.381 C 264.927 80.821,265.491 80.430,265.741 80.514 C 265.990 80.597,266.380 80.290,266.607 79.832 C 266.834 79.375,267.402 78.945,267.869 78.878 C 268.336 78.810,268.810 78.405,268.922 77.978 C 269.045 77.506,269.470 77.200,270.000 77.200 C 270.540 77.200,270.955 76.892,271.085 76.396 C 271.201 75.953,271.718 75.485,272.233 75.356 C 272.749 75.226,273.280 74.778,273.413 74.360 C 273.646 73.625,274.053 73.434,275.100 73.570 C 275.375 73.606,275.600 73.361,275.600 73.027 C 275.600 72.692,276.095 72.104,276.700 71.719 C 277.305 71.334,277.944 70.790,278.120 70.510 C 278.296 70.229,278.697 70.000,279.011 70.000 C 279.325 70.000,279.876 69.550,280.237 69.000 C 280.597 68.450,281.219 68.000,281.619 68.000 C 282.019 68.000,282.457 67.649,282.594 67.220 C 282.730 66.792,283.237 66.316,283.720 66.163 C 284.204 66.010,284.835 65.551,285.123 65.143 C 285.410 64.734,285.834 64.400,286.065 64.400 C 286.296 64.400,286.839 63.950,287.271 63.400 C 287.704 62.850,288.272 62.400,288.533 62.400 C 288.794 62.400,289.237 62.033,289.516 61.585 C 289.796 61.137,290.293 60.822,290.620 60.885 C 290.947 60.948,291.446 60.550,291.729 60.000 C 292.016 59.443,292.531 59.049,292.892 59.111 C 293.254 59.172,293.653 58.865,293.796 58.412 C 293.938 57.966,294.491 57.492,295.027 57.358 C 295.562 57.223,296.000 56.847,296.000 56.522 C 296.000 56.197,296.540 55.727,297.200 55.478 C 297.860 55.228,298.400 54.790,298.400 54.502 C 298.400 54.215,298.904 53.879,299.520 53.756 C 300.139 53.632,300.810 53.145,301.020 52.666 C 301.229 52.190,301.598 51.800,301.840 51.800 C 302.082 51.800,302.712 51.398,303.240 50.908 C 305.858 48.475,306.485 48.005,306.828 48.218 C 307.034 48.344,307.377 47.987,307.591 47.424 C 307.829 46.799,308.290 46.400,308.776 46.400 C 309.214 46.400,309.765 46.040,310.000 45.600 C 310.235 45.160,310.688 44.800,311.005 44.800 C 311.322 44.800,311.876 44.350,312.237 43.800 C 312.597 43.250,313.121 42.800,313.400 42.800 C 313.679 42.800,314.212 42.336,314.584 41.769 C 314.955 41.201,315.498 40.829,315.790 40.941 C 316.089 41.056,316.409 40.808,316.523 40.374 C 316.633 39.951,317.056 39.482,317.462 39.334 C 317.868 39.185,318.630 38.644,319.155 38.132 C 319.680 37.619,320.355 37.200,320.655 37.200 C 320.955 37.200,321.200 36.945,321.200 36.634 C 321.200 36.322,321.740 35.828,322.400 35.536 C 323.060 35.244,323.600 34.791,323.600 34.529 C 323.600 34.268,324.005 33.926,324.500 33.770 C 324.995 33.613,325.635 33.151,325.923 32.743 C 326.210 32.334,326.795 32.000,327.223 32.000 C 327.650 32.000,328.000 31.736,328.000 31.414 C 328.000 30.728,329.179 30.029,329.900 30.287 C 330.196 30.393,330.400 30.132,330.400 29.647 C 330.400 28.804,331.686 27.819,332.163 28.297 C 332.311 28.444,332.536 28.168,332.663 27.683 C 332.789 27.197,333.052 26.778,333.247 26.750 C 333.441 26.723,333.763 26.677,333.961 26.650 C 334.160 26.623,334.780 26.150,335.339 25.600 C 337.570 23.404,338.084 23.000,338.645 22.996 C 338.967 22.994,339.458 22.544,339.737 21.996 C 340.034 21.414,340.526 21.049,340.922 21.118 C 341.303 21.184,341.600 20.980,341.600 20.651 C 341.600 20.330,342.140 19.828,342.800 19.536 C 343.460 19.244,344.000 18.809,344.000 18.570 C 344.000 18.331,344.495 17.880,345.100 17.568 C 345.705 17.255,346.435 16.685,346.723 16.300 C 347.010 15.915,347.434 15.600,347.665 15.600 C 347.896 15.600,348.432 15.158,348.857 14.618 C 349.305 14.049,349.876 13.731,350.215 13.861 C 350.575 13.999,350.800 13.844,350.800 13.457 C 350.800 12.834,352.387 11.682,352.414 12.286 C 352.422 12.459,352.678 12.150,352.983 11.600 C 353.288 11.050,353.777 10.576,354.069 10.546 C 354.361 10.517,354.825 10.472,355.100 10.446 C 355.375 10.421,355.600 10.035,355.600 9.590 C 355.600 9.010,355.941 8.712,356.800 8.540 C 357.621 8.376,358.000 8.063,358.000 7.550 C 358.000 7.129,358.281 6.800,358.640 6.800 C 358.991 6.800,359.787 6.305,360.408 5.700 C 363.181 2.997,363.544 2.718,363.960 2.976 C 364.216 3.133,364.568 2.809,364.798 2.206 C 365.048 1.547,365.447 1.207,365.883 1.282 C 366.280 1.350,366.632 1.104,366.715 0.700 C 366.853 0.027,168.969 -0.412,167.322 0.257 " stroke="none" fill="#dcd45c" fill-rule="evenodd"></path><path id="path1" d="M111.673 92.087 C 111.086 92.674,111.062 93.200,111.624 93.200 C 111.857 93.200,111.945 93.035,111.821 92.834 C 111.697 92.633,111.821 92.388,112.098 92.289 C 112.374 92.190,112.498 91.998,112.373 91.861 C 112.249 91.725,111.934 91.826,111.673 92.087 M200.634 131.945 C 200.498 132.165,200.551 132.446,200.752 132.570 C 201.444 132.998,335.789 132.834,335.932 132.405 C 336.022 132.133,314.065 132.000,269.066 132.000 C 232.216 132.000,201.799 131.898,201.473 131.773 C 201.147 131.648,200.770 131.725,200.634 131.945 M240.800 208.000 C 240.483 208.196,240.356 208.489,240.518 208.652 C 240.681 208.814,241.023 208.737,241.280 208.480 C 241.884 207.876,241.547 207.538,240.800 208.000 M215.200 228.400 C 214.883 228.596,214.756 228.889,214.918 229.052 C 215.081 229.214,215.423 229.137,215.680 228.880 C 216.284 228.276,215.947 227.938,215.200 228.400 " stroke="none" fill="#e3dc7c" fill-rule="evenodd"></path><path id="path2" d="" stroke="none" fill="#dddb9d" fill-rule="evenodd"></path><path id="path3" d="" stroke="none" fill="#dcdc6c" fill-rule="evenodd"></path><path id="path4" d="M330.971 28.591 C 330.547 28.912,330.380 29.178,330.600 29.181 C 331.194 29.191,332.210 28.477,331.959 28.226 C 331.840 28.106,331.395 28.271,330.971 28.591 M148.633 31.057 C 148.252 32.050,148.672 32.186,149.182 31.234 C 149.427 30.775,149.461 30.400,149.257 30.400 C 149.053 30.400,148.772 30.696,148.633 31.057 M81.254 142.670 C 81.294 142.852,81.186 143.323,81.014 143.717 C 80.532 144.821,80.947 144.871,81.466 143.771 C 81.740 143.191,81.775 142.708,81.552 142.571 C 81.348 142.444,81.213 142.489,81.254 142.670 M106.190 209.230 C 105.805 210.445,106.194 210.570,106.726 209.402 C 106.977 208.851,107.019 208.400,106.818 208.400 C 106.618 208.400,106.335 208.774,106.190 209.230 M229.029 217.009 C 228.605 217.329,228.338 217.671,228.435 217.769 C 228.532 217.866,229.059 217.602,229.606 217.182 C 230.153 216.761,230.420 216.420,230.200 216.422 C 229.980 216.424,229.453 216.688,229.029 217.009 M78.652 253.300 C 78.241 254.833,78.379 255.050,79.002 253.854 C 79.699 252.519,79.719 252.400,79.247 252.400 C 79.052 252.400,78.785 252.805,78.652 253.300 M76.779 256.622 C 76.251 257.184,76.088 257.541,76.418 257.414 C 76.939 257.215,78.234 255.600,77.873 255.600 C 77.800 255.600,77.307 256.060,76.779 256.622 M236.000 269.571 C 236.000 269.775,235.685 270.024,235.300 270.124 C 234.709 270.279,234.702 270.314,235.251 270.354 C 235.609 270.379,236.126 270.130,236.400 269.800 C 236.744 269.385,236.759 269.200,236.449 269.200 C 236.202 269.200,236.000 269.367,236.000 269.571 M67.473 271.211 C 66.898 271.770,66.856 271.983,67.273 272.224 C 67.563 272.391,67.668 272.382,67.506 272.204 C 67.345 272.025,67.524 271.651,67.906 271.372 C 68.287 271.093,68.509 270.784,68.399 270.684 C 68.290 270.585,67.873 270.822,67.473 271.211 M231.285 272.790 C 230.426 273.506,230.419 273.549,231.168 273.492 C 231.607 273.459,231.885 273.352,231.786 273.253 C 231.688 273.154,231.807 272.832,232.052 272.537 C 232.674 271.787,232.364 271.890,231.285 272.790 M222.941 278.797 C 222.468 278.988,221.954 279.351,221.797 279.605 C 221.639 279.860,222.067 279.779,222.756 279.423 C 223.440 279.069,224.000 278.694,224.000 278.590 C 224.000 278.364,224.027 278.359,222.941 278.797 M56.138 289.417 C 55.778 290.355,56.167 290.466,56.719 289.582 C 57.028 289.087,57.054 288.800,56.791 288.800 C 56.562 288.800,56.268 289.078,56.138 289.417 M188.400 302.800 C 187.893 303.240,187.657 303.600,187.877 303.600 C 188.096 303.600,188.602 303.240,189.000 302.800 C 189.398 302.360,189.634 302.000,189.523 302.000 C 189.413 302.000,188.907 302.360,188.400 302.800 M77.500 331.632 C 77.115 331.856,76.814 332.346,76.832 332.720 C 76.857 333.274,76.906 333.289,77.096 332.800 C 77.225 332.470,77.616 331.981,77.965 331.713 C 78.737 331.120,78.461 331.072,77.500 331.632 M123.256 348.413 C 122.687 348.887,122.530 349.200,122.859 349.200 C 123.161 349.200,123.632 348.840,123.907 348.400 C 124.521 347.417,124.450 347.419,123.256 348.413 M62.800 351.000 C 62.591 351.550,62.205 352.000,61.943 352.000 C 61.681 352.000,61.582 352.116,61.724 352.257 C 62.091 352.624,63.076 351.716,63.319 350.787 C 63.613 349.664,63.251 349.813,62.800 351.000 " stroke="none" fill="#dcd46c" fill-rule="evenodd"></path><path id="path5" d="" stroke="none" fill="#e0d460" fill-rule="evenodd"></path></g></svg>