<svg id="svg" version="1.1" xmlns="http://www.w3.org/2000/svg" xmlns:xlink="http://www.w3.org/1999/xlink" width="400" height="409.04761904761904" viewBox="0, 0, 400,409.04761904761904"><g id="svgg"><path id="path0" d="M291.128 8.700 C 290.618 9.745,290.002 10.780,289.760 11.000 C 289.351 11.371,288.568 12.696,286.135 17.137 C 285.611 18.092,284.911 19.146,284.578 19.479 C 284.246 19.811,283.614 20.740,283.173 21.542 C 282.733 22.344,281.845 23.810,281.199 24.800 C 280.553 25.790,279.475 27.590,278.802 28.800 C 278.130 30.010,277.227 31.540,276.796 32.200 C 276.365 32.860,275.851 33.760,275.654 34.200 C 275.457 34.640,274.582 36.080,273.710 37.400 C 272.837 38.720,271.691 40.609,271.162 41.599 C 270.633 42.588,270.107 43.488,269.994 43.599 C 269.475 44.106,265.600 50.747,265.600 51.130 C 265.600 51.366,265.373 51.704,265.096 51.880 C 264.819 52.056,264.234 52.920,263.796 53.800 C 263.358 54.680,262.607 55.895,262.126 56.500 C 261.645 57.105,261.024 58.230,260.746 59.000 C 260.467 59.770,260.099 60.400,259.928 60.400 C 259.756 60.400,259.256 61.105,258.817 61.967 C 258.377 62.829,257.496 64.314,256.859 65.267 C 256.222 66.220,255.576 67.405,255.423 67.900 C 255.271 68.395,255.007 68.800,254.837 68.800 C 254.667 68.800,254.305 69.295,254.032 69.900 C 253.758 70.505,252.943 71.900,252.220 73.000 C 251.497 74.100,250.785 75.388,250.638 75.863 C 250.490 76.338,250.106 76.827,249.785 76.950 C 249.463 77.074,249.200 77.353,249.200 77.572 C 249.200 77.992,242.828 88.858,242.381 89.200 C 241.955 89.526,241.200 91.106,241.200 91.674 C 241.200 92.101,243.806 92.179,255.019 92.090 L 268.839 91.980 268.360 92.890 C 268.096 93.390,267.750 93.890,267.592 94.000 C 267.433 94.110,266.811 95.145,266.210 96.300 C 265.608 97.455,265.000 98.400,264.858 98.401 C 264.716 98.401,264.083 99.391,263.451 100.601 C 262.819 101.810,262.144 102.800,261.951 102.800 C 261.758 102.800,261.600 102.984,261.600 103.208 C 261.600 103.432,261.110 104.377,260.510 105.308 C 258.933 107.757,258.404 108.806,258.372 109.546 C 258.356 109.906,257.681 111.241,256.872 112.514 C 255.249 115.067,245.797 130.200,241.704 136.800 C 240.271 139.110,238.756 141.495,238.337 142.100 L 237.576 143.200 248.788 143.200 C 261.263 143.200,260.943 143.115,258.700 145.829 C 257.985 146.694,256.846 148.121,256.170 149.001 C 253.609 152.330,237.648 173.124,234.200 177.625 C 232.220 180.208,229.250 184.077,227.600 186.221 C 225.950 188.366,223.844 191.128,222.920 192.360 C 221.996 193.592,221.088 194.780,220.903 195.000 C 220.466 195.517,217.467 199.470,215.330 202.346 C 212.827 205.713,212.951 205.651,222.800 198.624 C 226.680 195.855,227.895 195.006,229.988 193.600 C 231.694 192.454,234.496 190.514,238.800 187.500 C 240.450 186.345,243.330 184.329,245.200 183.020 C 247.070 181.711,252.470 177.917,257.200 174.590 C 267.899 167.063,270.521 165.235,274.800 162.317 C 276.670 161.042,281.260 157.848,285.000 155.218 C 288.740 152.588,292.392 150.024,293.116 149.519 C 293.840 149.013,295.245 147.999,296.238 147.265 C 297.230 146.531,298.298 146.029,298.611 146.149 C 298.923 146.269,299.319 146.140,299.489 145.862 C 299.660 145.585,300.630 144.827,301.645 144.179 C 303.856 142.767,305.843 141.390,308.800 139.222 C 310.010 138.335,311.675 137.244,312.500 136.797 C 313.325 136.350,314.000 135.803,314.000 135.582 C 314.000 135.361,314.411 135.024,314.913 134.833 C 315.415 134.642,316.677 133.837,317.717 133.043 C 318.756 132.249,319.740 131.600,319.903 131.599 C 320.067 131.599,320.830 131.059,321.600 130.400 C 322.370 129.741,323.135 129.201,323.300 129.201 C 323.465 129.200,323.923 128.877,324.319 128.481 C 324.714 128.086,325.974 127.156,327.119 126.414 C 328.928 125.242,329.485 124.651,329.100 124.312 C 329.045 124.263,322.088 124.128,313.639 124.012 L 298.279 123.800 299.239 122.917 C 299.768 122.432,301.910 120.681,304.000 119.027 C 306.090 117.373,308.284 115.565,308.874 115.010 C 309.465 114.454,310.063 114.000,310.203 114.000 C 310.413 114.000,313.288 111.739,315.035 110.200 C 315.284 109.980,316.162 109.260,316.985 108.600 C 317.808 107.940,318.720 107.175,319.012 106.900 C 319.304 106.625,319.726 106.400,319.949 106.400 C 320.172 106.400,320.590 106.082,320.877 105.693 C 321.165 105.304,321.883 104.678,322.474 104.301 C 323.065 103.924,323.980 103.207,324.508 102.708 C 325.036 102.209,326.156 101.260,326.996 100.600 C 329.469 98.659,330.964 97.439,331.529 96.903 C 331.819 96.626,332.187 96.400,332.345 96.400 C 332.504 96.400,333.346 95.770,334.217 95.001 C 335.087 94.231,336.157 93.286,336.593 92.901 C 337.029 92.515,337.681 92.020,338.042 91.800 C 338.403 91.580,340.117 90.276,341.850 88.903 C 343.582 87.529,346.420 85.279,348.156 83.903 C 349.892 82.526,351.604 81.128,351.961 80.795 C 352.319 80.462,353.238 79.744,354.005 79.200 C 359.426 75.356,361.106 75.600,329.200 75.600 C 301.744 75.600,299.863 75.514,302.100 74.366 C 303.001 73.904,303.449 73.538,305.931 71.235 C 306.663 70.556,307.393 70.000,307.555 70.000 C 307.716 70.000,308.762 69.235,309.880 68.300 C 312.617 66.010,314.791 64.253,315.200 64.000 C 315.385 63.886,316.136 63.307,316.868 62.713 C 321.617 58.868,324.793 56.400,324.994 56.400 C 325.122 56.400,325.764 55.905,326.420 55.300 C 328.992 52.929,329.641 52.400,329.981 52.400 C 330.175 52.400,330.393 52.265,330.467 52.100 C 330.540 51.935,331.680 50.995,333.000 50.012 C 334.320 49.028,335.954 47.768,336.631 47.212 C 337.307 46.655,338.561 45.660,339.417 45.000 C 340.273 44.340,341.273 43.507,341.639 43.148 C 342.004 42.790,343.270 41.761,344.452 40.862 C 349.802 36.791,351.422 35.475,351.720 34.957 C 351.896 34.650,352.225 34.400,352.452 34.400 C 352.836 34.400,354.307 33.257,357.983 30.100 C 358.816 29.385,359.690 28.800,359.926 28.800 C 360.162 28.800,360.590 28.482,360.877 28.093 C 361.165 27.704,361.887 27.075,362.482 26.696 C 363.077 26.316,363.887 25.677,364.282 25.276 C 364.677 24.875,366.160 23.659,367.579 22.574 C 370.200 20.568,371.523 19.472,373.702 17.500 C 374.371 16.895,375.143 16.400,375.417 16.400 C 375.690 16.400,376.015 16.138,376.138 15.817 C 376.261 15.496,377.062 14.792,377.917 14.252 C 378.772 13.712,379.789 12.954,380.176 12.567 C 380.562 12.181,381.896 11.090,383.139 10.143 C 386.311 7.728,386.446 7.597,386.185 7.176 C 386.042 6.945,367.876 6.800,339.004 6.800 L 292.056 6.800 291.128 8.700 " stroke="none" fill="#dbd35c" fill-rule="evenodd"></path><path id="path1" d="M199.356 56.017 C 198.891 56.191,198.403 56.615,198.271 56.960 C 198.131 57.324,197.773 57.488,197.415 57.350 C 197.040 57.207,196.800 57.335,196.800 57.680 C 196.800 58.527,192.515 62.523,192.267 61.907 C 192.114 61.526,192.055 61.537,192.032 61.953 C 191.984 62.792,187.963 66.761,187.385 66.539 C 187.107 66.432,186.907 66.583,186.940 66.875 C 187.028 67.651,183.726 70.525,183.153 70.171 C 182.880 70.002,182.781 70.046,182.922 70.273 C 183.295 70.878,182.001 72.486,181.343 72.234 C 181.015 72.107,180.670 72.310,180.536 72.707 C 180.213 73.662,175.626 78.000,174.938 78.000 C 174.631 78.000,174.209 78.450,174.000 79.000 C 173.791 79.550,173.345 80.000,173.010 80.000 C 172.674 80.000,172.397 80.225,172.393 80.500 C 172.386 80.986,169.517 83.600,168.991 83.600 C 168.847 83.600,167.800 84.610,166.664 85.845 C 165.529 87.080,163.973 88.520,163.207 89.045 C 162.441 89.570,161.947 90.000,162.108 90.000 C 162.270 90.000,161.677 90.655,160.791 91.456 C 159.904 92.257,159.059 92.793,158.913 92.647 C 158.767 92.501,158.444 92.880,158.195 93.489 C 157.921 94.159,157.437 94.597,156.971 94.598 C 156.547 94.599,156.236 94.797,156.280 95.039 C 156.391 95.656,153.468 98.430,152.555 98.573 C 152.107 98.643,151.848 98.957,151.918 99.345 C 152.022 99.929,151.577 100.186,150.700 100.047 C 150.535 100.021,150.400 100.184,150.400 100.409 C 150.400 101.090,146.437 104.870,146.004 104.602 C 145.782 104.465,145.600 104.627,145.600 104.962 C 145.600 105.298,145.240 105.765,144.799 106.000 C 144.359 106.236,142.745 107.682,141.213 109.214 C 139.681 110.746,138.331 112.000,138.213 112.000 C 138.095 112.000,137.339 112.729,136.535 113.620 C 135.483 114.783,134.983 115.096,134.757 114.731 C 134.526 114.356,134.367 114.430,134.154 115.011 C 133.769 116.063,129.167 120.800,128.530 120.800 C 128.254 120.800,127.835 121.160,127.600 121.600 C 127.365 122.040,126.920 122.400,126.613 122.400 C 126.305 122.400,125.945 122.744,125.811 123.165 C 125.546 124.001,122.328 126.800,121.633 126.800 C 121.395 126.800,121.200 127.064,121.200 127.386 C 121.200 128.077,119.846 128.899,119.388 128.486 C 119.214 128.329,119.195 128.415,119.345 128.677 C 119.498 128.944,119.087 129.697,118.409 130.391 C 117.744 131.071,117.200 131.504,117.200 131.353 C 117.200 131.201,116.840 131.493,116.400 132.000 C 115.960 132.507,115.600 132.804,115.600 132.660 C 115.600 132.516,114.949 133.118,114.153 133.999 C 112.821 135.474,111.571 136.217,112.238 135.138 C 112.421 134.843,112.347 134.785,112.035 134.979 C 111.766 135.145,111.634 135.511,111.741 135.792 C 111.997 136.457,111.238 137.200,110.302 137.200 C 109.888 137.200,109.616 137.440,109.682 137.747 C 109.809 138.337,106.895 141.175,106.147 141.191 C 105.897 141.196,105.593 141.583,105.471 142.052 C 105.322 142.621,105.041 142.824,104.624 142.665 C 104.281 142.533,104.000 142.603,104.000 142.821 C 104.000 143.542,99.681 147.697,99.224 147.415 C 98.975 147.261,98.828 147.366,98.890 147.656 C 98.951 147.939,98.595 148.355,98.100 148.580 C 97.605 148.805,97.200 149.173,97.200 149.397 C 97.200 149.621,96.292 150.613,95.182 151.602 C 94.072 152.591,92.097 154.432,90.794 155.692 C 89.189 157.246,88.218 157.905,87.783 157.738 C 87.341 157.569,87.181 157.684,87.270 158.107 C 87.416 158.798,83.098 163.077,81.700 163.626 C 81.205 163.821,80.800 164.243,80.800 164.563 C 80.800 164.884,80.440 165.260,80.000 165.400 C 79.560 165.540,79.200 165.891,79.200 166.181 C 79.200 166.845,77.308 168.114,76.793 167.796 C 76.580 167.664,76.514 167.832,76.646 168.176 C 76.792 168.557,76.602 168.901,76.150 169.075 C 75.747 169.229,74.324 170.482,72.988 171.858 C 71.652 173.234,70.048 174.554,69.424 174.791 C 68.800 175.028,68.396 175.329,68.527 175.460 C 68.899 175.832,66.459 178.084,65.995 177.797 C 65.767 177.656,65.623 177.689,65.675 177.870 C 65.872 178.555,64.726 180.057,64.169 179.844 C 63.855 179.723,63.600 179.860,63.600 180.151 C 63.600 180.833,60.123 184.000,59.374 184.000 C 59.058 184.000,58.800 184.248,58.800 184.551 C 58.800 184.854,58.495 185.349,58.123 185.651 C 57.663 186.024,57.543 186.040,57.747 185.700 C 58.149 185.031,57.679 185.064,56.990 185.752 C 56.687 186.056,56.555 186.421,56.697 186.564 C 57.117 186.984,53.183 190.369,52.556 190.128 C 52.166 189.978,52.067 190.108,52.236 190.550 C 52.406 190.993,52.162 191.310,51.441 191.585 C 50.868 191.802,50.400 192.165,50.400 192.391 C 50.400 192.813,47.420 195.682,46.703 195.950 C 46.483 196.032,45.393 197.067,44.282 198.251 C 43.170 199.435,41.977 200.357,41.630 200.302 C 41.241 200.239,40.951 200.544,40.872 201.100 C 40.802 201.595,40.571 202.000,40.360 202.000 C 40.149 202.000,39.414 202.639,38.729 203.420 C 38.043 204.201,37.248 204.750,36.961 204.640 C 36.631 204.514,36.523 204.655,36.665 205.026 C 36.817 205.420,36.484 205.752,35.645 206.044 C 34.960 206.283,34.402 206.686,34.404 206.939 C 34.409 207.519,29.588 212.000,28.959 212.000 C 28.703 212.000,28.396 212.373,28.276 212.830 C 28.157 213.286,27.686 213.757,27.230 213.876 C 26.773 213.996,26.400 214.241,26.400 214.421 C 26.400 215.026,23.409 217.593,22.700 217.597 C 22.315 217.598,22.000 217.831,22.000 218.114 C 22.000 218.396,21.010 219.605,19.800 220.800 C 18.590 221.995,17.600 222.847,17.600 222.694 C 17.600 222.541,16.665 223.402,15.522 224.608 C 14.379 225.813,13.139 226.800,12.766 226.800 C 12.367 226.800,12.112 227.087,12.144 227.500 C 12.175 227.885,11.930 228.200,11.600 228.200 C 11.270 228.200,10.754 228.634,10.453 229.165 C 9.754 230.399,7.715 232.136,6.635 232.418 C 6.176 232.538,5.800 232.898,5.800 233.218 C 5.800 233.538,5.535 233.800,5.212 233.800 C 4.888 233.800,4.401 234.247,4.128 234.793 C 3.856 235.339,3.321 236.014,2.940 236.293 C 2.379 236.704,8.023 236.800,32.709 236.800 C 61.323 236.800,63.193 236.842,63.519 237.500 C 63.711 237.889,63.842 276.052,63.814 323.500 L 63.762 408.800 199.481 408.800 L 335.200 408.800 335.200 323.476 C 335.200 255.845,335.304 238.013,335.700 237.476 C 336.161 236.853,338.568 236.792,366.334 236.700 L 396.467 236.600 394.634 234.740 C 393.625 233.717,392.800 232.672,392.800 232.417 C 392.800 232.161,392.622 232.063,392.405 232.197 C 391.913 232.501,387.932 228.834,388.230 228.351 C 388.350 228.158,388.077 228.000,387.624 228.000 C 387.152 228.000,386.800 227.739,386.800 227.390 C 386.800 227.055,386.395 226.618,385.900 226.420 C 384.514 225.865,380.184 221.567,380.330 220.891 C 380.418 220.487,380.254 220.370,379.828 220.534 C 379.404 220.697,378.393 219.991,376.756 218.388 C 375.413 217.075,374.154 216.000,373.957 216.000 C 373.761 216.000,373.600 215.730,373.600 215.400 C 373.600 215.070,373.370 214.800,373.089 214.800 C 372.535 214.800,370.400 212.544,370.400 211.959 C 370.400 211.761,370.190 211.645,369.933 211.700 C 369.676 211.755,369.269 211.425,369.030 210.968 C 368.790 210.510,368.341 210.220,368.033 210.322 C 367.643 210.452,367.551 210.303,367.732 209.834 C 367.897 209.402,367.834 209.255,367.557 209.427 C 367.319 209.574,366.245 208.773,365.171 207.647 C 364.097 206.521,363.015 205.600,362.766 205.600 C 362.518 205.600,362.412 205.347,362.531 205.037 C 362.664 204.688,362.414 204.386,361.873 204.243 C 360.910 203.990,357.600 200.971,357.600 200.346 C 357.600 200.130,357.444 200.049,357.253 200.167 C 356.813 200.439,355.506 199.027,355.866 198.668 C 356.013 198.520,355.848 198.400,355.500 198.400 C 355.151 198.400,353.726 197.302,352.333 195.960 C 350.940 194.619,349.125 192.960,348.300 192.274 C 347.475 191.589,346.800 190.835,346.800 190.600 C 346.800 190.365,346.260 189.853,345.600 189.464 C 344.058 188.552,340.400 185.052,340.400 184.487 C 340.400 184.249,340.026 183.935,339.569 183.790 C 338.518 183.457,333.600 178.802,333.600 178.141 C 333.600 177.869,333.392 177.519,333.138 177.362 C 332.852 177.185,332.785 177.252,332.962 177.538 C 333.119 177.792,333.117 178.000,332.958 178.000 C 332.549 178.000,327.446 173.112,327.184 172.470 C 327.066 172.179,326.872 171.999,326.754 172.070 C 326.427 172.268,322.400 168.540,322.400 168.039 C 322.400 167.798,322.261 167.645,322.092 167.700 C 321.623 167.852,317.625 164.296,317.370 163.500 C 317.247 163.115,316.948 162.800,316.707 162.800 C 316.465 162.800,315.982 162.540,315.634 162.222 C 315.285 161.904,314.145 160.891,313.100 159.971 C 312.055 159.051,311.200 158.032,311.200 157.706 C 311.200 157.336,310.968 157.203,310.579 157.353 C 310.159 157.514,309.803 157.237,309.479 156.496 C 309.215 155.893,308.802 155.400,308.559 155.400 C 308.045 155.400,304.800 152.548,304.800 152.096 C 304.800 151.927,304.395 151.610,303.900 151.391 C 303.398 151.168,303.027 150.672,303.060 150.268 C 303.097 149.823,302.919 149.622,302.597 149.746 C 302.310 149.856,301.348 149.148,300.461 148.173 C 299.573 147.198,298.697 146.400,298.515 146.400 C 298.235 146.400,293.548 149.611,292.169 150.748 C 291.931 150.943,291.031 151.577,290.169 152.157 C 289.306 152.736,287.766 153.793,286.747 154.505 C 285.728 155.217,283.658 156.664,282.147 157.719 C 280.636 158.775,277.240 161.162,274.600 163.024 C 271.960 164.886,268.900 167.023,267.800 167.774 C 265.508 169.337,261.969 171.809,254.353 177.164 C 251.409 179.234,247.740 181.809,246.200 182.886 C 244.660 183.964,240.520 186.864,237.000 189.331 C 233.480 191.798,229.070 194.849,227.200 196.111 C 225.330 197.372,222.900 199.043,221.800 199.823 C 220.700 200.604,219.350 201.546,218.800 201.918 C 218.250 202.290,216.900 203.270,215.800 204.096 C 213.862 205.550,212.800 205.962,212.800 205.259 C 212.800 204.908,213.079 204.522,217.830 198.304 C 219.387 196.267,221.947 192.890,223.520 190.800 C 226.372 187.011,229.900 182.403,235.465 175.200 C 237.080 173.110,238.740 170.950,239.154 170.400 C 239.568 169.850,240.965 168.050,242.259 166.400 C 243.553 164.750,244.925 162.950,245.309 162.400 C 245.693 161.850,246.591 160.662,247.304 159.759 C 248.017 158.857,249.893 156.427,251.473 154.359 C 253.053 152.292,255.447 149.160,256.793 147.400 L 259.241 144.200 248.720 144.098 C 242.934 144.043,237.969 143.911,237.686 143.806 C 236.952 143.533,238.021 141.602,245.155 130.315 C 252.197 119.173,257.370 110.885,257.885 109.918 C 258.308 109.123,258.265 108.968,257.547 108.702 C 257.095 108.535,256.634 108.051,256.523 107.627 C 256.412 107.202,256.103 106.939,255.837 107.041 C 255.323 107.238,252.325 104.255,252.624 103.843 C 252.721 103.709,252.682 103.688,252.537 103.797 C 252.174 104.068,251.164 103.182,251.400 102.800 C 251.505 102.630,251.278 102.515,250.896 102.545 C 250.462 102.579,250.221 102.338,250.255 101.904 C 250.285 101.522,250.149 101.308,249.952 101.430 C 249.517 101.699,248.337 100.597,248.686 100.248 C 248.822 100.111,248.704 100.000,248.423 100.000 C 247.873 100.000,246.991 99.281,243.838 96.264 C 242.725 95.200,241.496 94.159,241.107 93.950 C 240.718 93.742,240.400 93.210,240.400 92.768 C 240.400 92.326,240.174 92.017,239.898 92.080 C 239.263 92.226,236.000 89.631,236.000 88.980 C 236.000 88.712,235.627 88.396,235.170 88.276 C 234.714 88.157,234.243 87.686,234.124 87.230 C 234.002 86.764,233.579 86.400,233.161 86.400 C 232.700 86.400,232.320 86.020,232.165 85.403 C 232.027 84.854,231.747 84.509,231.542 84.636 C 231.063 84.932,227.782 81.966,227.856 81.302 C 227.886 81.026,227.646 80.800,227.321 80.800 C 226.996 80.800,225.756 79.802,224.565 78.582 C 223.374 77.362,222.400 76.455,222.400 76.565 C 222.400 76.675,221.500 75.936,220.400 74.923 C 219.300 73.910,218.400 72.828,218.400 72.520 C 218.400 72.211,217.849 71.766,217.175 71.532 C 216.408 71.264,216.028 70.903,216.158 70.565 C 216.272 70.268,216.165 69.902,215.921 69.751 C 215.652 69.585,215.589 69.659,215.762 69.938 C 216.328 70.854,215.366 70.337,213.700 68.829 C 212.765 67.983,212.000 67.086,212.000 66.836 C 212.000 66.585,211.533 66.202,210.961 65.985 C 210.390 65.768,209.830 65.235,209.716 64.800 C 209.602 64.365,209.359 64.102,209.176 64.215 C 208.992 64.328,208.027 63.606,207.032 62.611 C 206.036 61.615,205.351 60.796,205.511 60.791 C 205.670 60.786,205.206 60.489,204.480 60.131 C 203.676 59.735,203.241 59.270,203.368 58.940 C 203.485 58.635,203.314 58.400,202.975 58.400 C 202.645 58.400,202.271 58.130,202.145 57.800 C 202.018 57.470,201.658 57.200,201.344 57.200 C 201.031 57.200,200.645 56.863,200.487 56.451 C 200.270 55.884,199.994 55.778,199.356 56.017 " stroke="none" fill="#040404" fill-rule="evenodd"></path><path id="path2" d="M212.400 67.124 C 212.400 67.339,212.685 67.624,213.033 67.757 C 213.423 67.907,213.606 67.818,213.508 67.525 C 213.309 66.927,212.400 66.598,212.400 67.124 M184.406 68.782 C 183.859 69.202,183.499 69.624,183.606 69.721 C 183.713 69.817,184.246 69.469,184.792 68.948 C 185.982 67.810,185.782 67.724,184.406 68.782 M218.800 72.768 C 218.800 73.177,220.358 74.575,220.574 74.360 C 220.667 74.267,220.305 73.801,219.771 73.326 C 219.237 72.850,218.800 72.599,218.800 72.768 M229.276 82.366 C 229.368 82.677,229.884 83.206,230.422 83.541 C 231.180 84.014,231.265 84.021,230.800 83.575 C 230.470 83.259,229.954 82.730,229.654 82.400 C 229.215 81.917,229.141 81.910,229.276 82.366 M311.600 157.955 C 311.600 158.395,312.759 159.374,312.998 159.136 C 313.096 159.038,312.821 158.654,312.388 158.283 C 311.955 157.911,311.600 157.764,311.600 157.955 M84.770 160.255 C 84.236 160.835,84.055 161.230,84.366 161.133 C 84.893 160.968,86.313 159.200,85.919 159.200 C 85.820 159.200,85.303 159.675,84.770 160.255 M62.000 181.132 C 61.094 182.015,61.083 182.064,61.878 181.651 C 62.360 181.401,62.873 181.005,63.018 180.771 C 63.510 179.975,63.002 180.155,62.000 181.132 M48.800 193.307 L 47.800 194.570 49.100 193.610 C 49.815 193.082,50.400 192.503,50.400 192.325 C 50.400 191.686,49.784 192.064,48.800 193.307 M26.962 213.258 C 26.204 214.112,26.205 214.114,27.100 213.644 C 27.595 213.384,28.000 212.998,28.000 212.786 C 28.000 212.218,27.809 212.305,26.962 213.258 M19.900 219.757 C 19.169 220.312,18.984 220.800,19.504 220.800 C 19.671 220.800,20.032 220.440,20.307 220.000 C 20.889 219.068,20.844 219.040,19.900 219.757 M2.440 235.840 C 1.919 236.382,1.575 236.909,1.678 237.011 C 1.780 237.113,2.285 236.748,2.800 236.200 C 3.315 235.652,3.658 235.125,3.562 235.029 C 3.467 234.933,2.961 235.298,2.440 235.840 M396.690 236.824 C 396.802 237.251,397.142 237.600,397.447 237.600 C 398.231 237.600,398.132 237.075,397.244 236.520 C 396.587 236.110,396.514 236.150,396.690 236.824 " stroke="none" fill="#4d4d4d" fill-rule="evenodd"></path><path id="path3" d="M248.300 92.299 C 252.095 92.365,258.305 92.365,262.100 92.299 C 265.895 92.234,262.790 92.180,255.200 92.180 C 247.610 92.180,244.505 92.234,248.300 92.299 M248.500 143.500 C 254.605 143.562,259.600 143.728,259.600 143.869 C 259.600 144.009,259.137 144.771,258.571 145.562 L 257.542 147.000 258.771 145.615 C 260.964 143.144,261.167 143.190,248.700 143.293 L 237.400 143.387 248.500 143.500 M253.944 151.500 C 252.793 152.889,252.306 153.600,252.504 153.600 C 252.614 153.600,253.186 152.970,253.773 152.200 C 254.863 150.771,254.995 150.232,253.944 151.500 M289.800 151.835 L 288.600 152.866 289.900 152.006 C 290.615 151.533,291.200 151.068,291.200 150.973 C 291.200 150.673,291.031 150.778,289.800 151.835 M285.800 154.635 L 284.600 155.666 285.900 154.806 C 286.615 154.333,287.200 153.868,287.200 153.773 C 287.200 153.473,287.031 153.578,285.800 154.635 M283.000 156.635 L 281.800 157.666 283.100 156.806 C 283.815 156.333,284.400 155.868,284.400 155.773 C 284.400 155.473,284.231 155.578,283.000 156.635 M248.000 159.200 C 247.303 160.080,246.823 160.800,246.933 160.800 C 247.043 160.800,247.703 160.080,248.400 159.200 C 249.097 158.320,249.577 157.600,249.467 157.600 C 249.357 157.600,248.697 158.320,248.000 159.200 M245.944 161.900 C 244.793 163.289,244.306 164.000,244.504 164.000 C 244.614 164.000,245.186 163.370,245.773 162.600 C 246.863 161.171,246.995 160.632,245.944 161.900 M275.000 162.235 L 273.800 163.266 275.100 162.406 C 275.815 161.933,276.400 161.468,276.400 161.373 C 276.400 161.073,276.231 161.178,275.000 162.235 M242.800 166.000 C 242.103 166.880,241.623 167.600,241.733 167.600 C 241.843 167.600,242.503 166.880,243.200 166.000 C 243.897 165.120,244.377 164.400,244.267 164.400 C 244.157 164.400,243.497 165.120,242.800 166.000 M268.154 166.868 C 266.529 168.091,266.063 168.573,267.000 168.060 C 268.040 167.491,269.872 166.020,269.554 166.009 C 269.419 166.004,268.789 166.391,268.154 166.868 M238.800 171.200 C 238.103 172.080,237.623 172.800,237.733 172.800 C 237.843 172.800,238.503 172.080,239.200 171.200 C 239.897 170.320,240.377 169.600,240.267 169.600 C 240.157 169.600,239.497 170.320,238.800 171.200 M260.600 172.235 L 259.400 173.266 260.700 172.406 C 261.415 171.933,262.000 171.468,262.000 171.373 C 262.000 171.073,261.831 171.178,260.600 172.235 M257.800 174.235 L 256.600 175.266 257.900 174.406 C 258.615 173.933,259.200 173.468,259.200 173.373 C 259.200 173.073,259.031 173.178,257.800 174.235 M253.800 177.035 L 252.600 178.066 253.900 177.206 C 254.615 176.733,255.200 176.268,255.200 176.173 C 255.200 175.873,255.031 175.978,253.800 177.035 M231.544 180.700 C 230.393 182.089,229.906 182.800,230.104 182.800 C 230.214 182.800,230.786 182.170,231.373 181.400 C 232.463 179.971,232.595 179.432,231.544 180.700 M239.400 187.050 C 238.681 187.662,238.534 187.905,239.033 187.657 C 239.766 187.293,241.141 185.976,240.749 186.014 C 240.667 186.022,240.060 186.488,239.400 187.050 M225.375 188.668 C 224.759 189.476,224.459 190.011,224.709 189.856 C 225.221 189.540,226.953 187.200,226.675 187.200 C 226.576 187.200,225.991 187.861,225.375 188.668 M236.600 189.035 L 235.400 190.066 236.700 189.206 C 237.415 188.733,238.000 188.268,238.000 188.173 C 238.000 187.873,237.831 187.978,236.600 189.035 M233.093 191.414 C 232.272 191.972,231.600 192.515,231.600 192.620 C 231.600 192.725,232.320 192.335,233.200 191.753 C 234.597 190.828,235.070 190.400,234.693 190.400 C 234.634 190.400,233.914 190.856,233.093 191.414 M222.800 192.000 C 222.330 192.660,222.036 193.200,222.146 193.200 C 222.256 193.200,222.730 192.660,223.200 192.000 C 223.670 191.340,223.964 190.800,223.854 190.800 C 223.744 190.800,223.270 191.340,222.800 192.000 M225.000 197.050 C 224.281 197.662,224.134 197.905,224.633 197.657 C 225.366 197.293,226.741 195.976,226.349 196.014 C 226.267 196.022,225.660 196.488,225.000 197.050 M218.000 198.400 C 217.530 199.060,217.236 199.600,217.346 199.600 C 217.456 199.600,217.930 199.060,218.400 198.400 C 218.870 197.740,219.164 197.200,219.054 197.200 C 218.944 197.200,218.470 197.740,218.000 198.400 M213.711 204.100 C 212.845 205.220,212.685 205.705,213.244 205.519 C 213.550 205.417,213.803 205.168,213.806 204.967 C 213.809 204.765,213.955 204.375,214.130 204.100 C 214.304 203.825,214.369 203.600,214.273 203.600 C 214.177 203.600,213.924 203.825,213.711 204.100 " stroke="none" fill="#7c7434" fill-rule="evenodd"></path><path id="path4" d="M153.798 96.802 C 153.398 97.244,153.148 97.681,153.240 97.774 C 153.333 97.867,153.799 97.505,154.274 96.971 C 154.750 96.437,155.001 96.000,154.832 96.000 C 154.662 96.000,154.197 96.361,153.798 96.802 M106.830 139.764 C 106.535 140.120,106.506 140.419,106.753 140.571 C 106.968 140.704,107.258 140.630,107.396 140.407 C 107.534 140.183,107.502 139.997,107.324 139.994 C 107.146 139.991,107.270 139.813,107.600 139.600 C 107.930 139.387,107.997 139.209,107.749 139.206 C 107.501 139.203,107.087 139.454,106.830 139.764 M8.237 230.600 C 7.876 231.150,7.643 231.600,7.719 231.600 C 7.794 231.600,8.247 231.150,8.725 230.600 C 9.203 230.050,9.437 229.600,9.243 229.600 C 9.050 229.600,8.597 230.050,8.237 230.600 M1.738 237.300 C 1.636 237.465,15.468 237.558,32.476 237.507 C 49.484 237.455,58.450 237.366,52.400 237.307 C 23.713 237.031,1.906 237.028,1.738 237.300 M351.100 237.500 C 359.515 237.560,373.285 237.560,381.700 237.500 C 390.115 237.440,383.230 237.390,366.400 237.390 C 349.570 237.390,342.685 237.440,351.100 237.500 " stroke="none" fill="#454540" fill-rule="evenodd"></path><path id="path5" d="M198.287 56.397 C 197.980 56.836,197.581 57.061,197.400 56.897 C 197.219 56.734,197.216 56.849,197.393 57.154 C 197.652 57.602,197.839 57.553,198.357 56.903 C 198.711 56.459,199.270 55.999,199.600 55.880 C 200.086 55.704,200.071 55.657,199.523 55.632 C 199.150 55.614,198.594 55.959,198.287 56.397 M203.200 59.100 C 203.200 59.269,203.560 59.632,204.000 59.907 C 204.440 60.182,204.800 60.269,204.800 60.100 C 204.800 59.931,204.440 59.568,204.000 59.293 C 203.560 59.018,203.200 58.931,203.200 59.100 M192.998 61.202 C 191.942 62.369,192.440 62.523,193.548 61.373 C 194.063 60.838,194.313 60.400,194.104 60.400 C 193.895 60.400,193.397 60.761,192.998 61.202 M189.500 64.276 C 189.115 64.376,188.800 64.721,188.800 65.042 C 188.800 65.363,188.409 65.770,187.932 65.947 C 187.454 66.124,187.245 66.381,187.468 66.519 C 187.691 66.656,188.477 66.146,189.215 65.384 C 189.953 64.623,190.477 64.021,190.378 64.046 C 190.280 64.072,189.885 64.175,189.500 64.276 M209.600 64.689 C 209.600 65.192,210.743 66.190,211.012 65.921 C 211.118 65.815,210.844 65.402,210.402 65.002 C 209.961 64.603,209.600 64.462,209.600 64.689 M185.010 68.713 L 183.419 70.600 185.210 69.024 C 187.038 67.415,187.526 66.790,186.933 66.813 C 186.750 66.820,185.884 67.675,185.010 68.713 M215.200 69.853 C 215.200 70.141,216.813 71.600,217.131 71.600 C 217.246 71.600,216.917 71.150,216.400 70.600 C 215.427 69.564,215.200 69.423,215.200 69.853 M182.498 70.666 C 182.221 70.777,182.097 71.033,182.221 71.234 C 182.345 71.435,182.167 71.600,181.824 71.600 C 181.481 71.600,181.200 71.795,181.200 72.033 C 181.200 72.693,182.060 72.264,182.715 71.278 C 183.323 70.361,183.315 70.336,182.498 70.666 M218.400 72.686 C 218.400 73.176,222.279 76.788,222.532 76.534 C 222.793 76.273,220.995 74.400,220.483 74.400 C 220.249 74.400,219.685 73.926,219.229 73.346 C 218.773 72.766,218.400 72.470,218.400 72.686 M178.353 74.720 C 177.558 75.534,176.478 76.497,175.953 76.859 C 175.429 77.222,175.108 77.630,175.241 77.767 C 175.373 77.903,176.633 76.934,178.041 75.613 C 179.448 74.292,180.420 73.218,180.200 73.226 C 179.980 73.234,179.149 73.906,178.353 74.720 M225.400 79.600 C 225.798 80.040,226.169 80.400,226.225 80.400 C 226.280 80.400,226.231 80.040,226.116 79.600 C 226.001 79.160,225.630 78.800,225.291 78.800 C 224.774 78.800,224.791 78.927,225.400 79.600 M170.950 81.385 C 170.827 81.706,170.380 82.079,169.957 82.214 C 169.534 82.348,169.282 82.609,169.397 82.795 C 169.511 82.980,169.379 83.223,169.102 83.334 C 168.826 83.446,168.780 83.544,169.000 83.552 C 169.220 83.560,170.105 82.944,170.967 82.183 C 172.046 81.230,172.322 80.800,171.854 80.800 C 171.481 80.800,171.074 81.063,170.950 81.385 M227.667 81.524 C 227.849 81.967,231.035 84.800,231.351 84.800 C 231.490 84.800,230.783 83.990,229.779 83.000 C 228.033 81.279,227.378 80.821,227.667 81.524 M165.000 86.800 C 164.253 87.295,164.041 87.596,164.438 87.597 C 164.789 87.599,165.402 87.240,165.800 86.800 C 166.710 85.794,166.519 85.794,165.000 86.800 M161.219 90.377 C 160.685 91.024,160.074 91.446,159.862 91.315 C 159.648 91.183,159.606 91.285,159.766 91.545 C 160.108 92.099,162.259 90.510,162.264 89.700 C 162.267 89.062,162.348 89.010,161.219 90.377 M238.602 91.602 C 239.002 92.044,239.415 92.318,239.521 92.212 C 239.790 91.943,238.792 90.800,238.289 90.800 C 238.062 90.800,238.203 91.161,238.602 91.602 M240.432 92.886 C 240.414 93.263,240.805 93.768,241.300 94.008 C 242.063 94.378,242.104 94.365,241.565 93.922 C 241.216 93.635,240.825 93.130,240.696 92.800 C 240.507 92.314,240.457 92.330,240.432 92.886 M157.416 93.739 C 156.930 94.094,156.829 94.371,157.119 94.550 C 157.362 94.700,157.755 94.457,157.994 94.011 C 158.504 93.057,158.409 93.013,157.416 93.739 M243.039 95.137 C 242.845 95.450,244.400 97.084,246.164 98.421 C 246.880 98.963,246.896 98.947,246.414 98.173 C 246.131 97.718,245.294 96.932,244.555 96.425 C 243.816 95.919,243.310 95.346,243.429 95.152 C 243.549 94.959,243.557 94.800,243.447 94.800 C 243.337 94.800,243.154 94.951,243.039 95.137 M154.191 97.051 C 153.096 98.070,152.560 98.714,153.000 98.484 C 153.788 98.072,156.735 95.200,156.370 95.200 C 156.267 95.200,155.286 96.033,154.191 97.051 M151.067 99.467 C 150.581 99.953,150.790 100.379,151.400 100.145 C 151.730 100.018,152.000 99.754,152.000 99.557 C 152.000 99.138,151.449 99.084,151.067 99.467 M249.200 100.955 C 249.200 101.108,249.560 101.620,250.000 102.092 C 250.440 102.564,250.800 102.765,250.800 102.537 C 250.800 102.310,250.440 101.798,250.000 101.400 C 249.560 101.002,249.200 100.801,249.200 100.955 M253.197 104.934 C 254.405 106.180,255.575 107.194,255.797 107.187 C 256.019 107.180,255.704 106.805,255.098 106.352 C 254.492 105.900,254.115 105.338,254.260 105.103 C 254.416 104.851,254.334 104.793,254.062 104.962 C 253.808 105.119,253.600 105.090,253.600 104.899 C 253.600 104.707,253.015 104.127,252.300 103.609 C 251.444 102.989,251.750 103.442,253.197 104.934 M146.392 103.810 C 145.584 104.783,146.257 104.964,147.249 104.040 C 147.942 103.395,148.006 103.200,147.524 103.200 C 147.180 103.200,146.670 103.474,146.392 103.810 M138.799 111.002 C 138.283 111.551,137.982 112.000,138.130 112.000 C 138.518 112.000,140.099 110.365,139.902 110.168 C 139.811 110.077,139.314 110.452,138.799 111.002 M135.467 114.067 C 135.063 114.507,134.808 114.941,134.898 115.032 C 134.989 115.123,135.486 114.748,136.001 114.198 C 136.517 113.649,136.773 113.215,136.570 113.233 C 136.366 113.252,135.870 113.627,135.467 114.067 M130.351 118.640 C 129.072 119.316,128.190 120.324,128.556 120.690 C 128.705 120.838,129.493 120.294,130.307 119.480 C 131.916 117.871,131.919 117.810,130.351 118.640 M124.600 124.142 C 123.513 124.772,121.396 126.803,121.842 126.788 C 122.039 126.781,123.010 126.067,124.000 125.200 C 125.852 123.578,125.989 123.337,124.600 124.142 M118.900 129.070 C 117.990 129.705,117.704 130.400,118.354 130.400 C 118.549 130.400,119.003 129.950,119.363 129.400 C 120.121 128.244,120.103 128.231,118.900 129.070 M113.556 134.100 C 113.086 134.995,113.088 134.996,113.942 134.238 C 114.895 133.391,114.982 133.200,114.414 133.200 C 114.202 133.200,113.816 133.605,113.556 134.100 M108.522 138.987 C 107.905 139.530,107.507 139.980,107.638 139.987 C 107.769 139.994,108.399 139.550,109.038 139.000 C 109.677 138.451,110.075 138.001,109.922 138.000 C 109.770 138.000,109.140 138.444,108.522 138.987 M104.800 142.000 C 104.483 142.196,104.356 142.489,104.518 142.652 C 104.681 142.814,105.023 142.737,105.280 142.480 C 105.884 141.876,105.547 141.538,104.800 142.000 M237.461 143.700 C 237.564 143.865,242.507 144.000,248.447 144.000 C 256.509 144.000,259.175 144.117,258.962 144.462 C 258.785 144.748,258.852 144.815,259.138 144.638 C 260.492 143.801,258.729 143.616,248.438 143.512 C 242.299 143.450,237.359 143.535,237.461 143.700 M99.665 146.784 C 98.749 147.655,98.000 148.474,98.000 148.604 C 98.000 149.028,100.827 146.696,101.233 145.938 C 101.809 144.861,101.525 145.015,99.665 146.784 M300.000 147.538 C 300.000 148.127,302.312 150.066,302.552 149.678 C 302.683 149.465,302.433 149.197,301.996 149.083 C 301.558 148.969,301.200 148.607,301.200 148.280 C 301.200 147.953,300.930 147.582,300.600 147.455 C 300.270 147.329,300.000 147.366,300.000 147.538 M96.000 150.249 C 96.000 150.780,96.109 150.808,96.600 150.400 C 96.930 150.126,97.200 149.834,97.200 149.751 C 97.200 149.668,96.930 149.600,96.600 149.600 C 96.270 149.600,96.000 149.892,96.000 150.249 M302.800 150.320 C 302.800 150.785,303.690 151.602,304.180 151.588 C 304.411 151.581,304.281 151.390,303.892 151.163 C 303.502 150.936,303.288 150.582,303.415 150.375 C 303.543 150.169,303.457 150.000,303.224 150.000 C 302.991 150.000,302.800 150.144,302.800 150.320 M93.711 152.100 C 92.691 153.419,92.766 153.679,93.928 152.851 C 94.627 152.353,95.200 151.868,95.200 151.773 C 95.200 151.386,94.071 151.634,93.711 152.100 M304.800 152.131 C 304.800 152.435,307.900 155.325,308.448 155.533 C 308.642 155.607,308.800 155.461,308.800 155.210 C 308.800 154.958,308.632 154.856,308.427 154.983 C 308.222 155.110,307.813 154.895,307.519 154.507 C 306.776 153.528,304.800 151.801,304.800 152.131 M91.296 154.395 C 90.586 155.532,90.682 155.693,91.600 154.907 C 92.414 154.210,92.646 153.600,92.096 153.600 C 91.929 153.600,91.569 153.958,91.296 154.395 M89.079 156.453 C 88.485 157.129,88.000 157.760,88.000 157.855 C 88.000 158.297,89.631 157.089,90.023 156.357 C 90.717 155.060,90.260 155.107,89.079 156.453 M309.590 156.781 C 309.837 157.244,310.211 157.517,310.420 157.388 C 310.972 157.046,310.897 156.880,309.970 156.384 C 309.208 155.976,309.177 156.009,309.590 156.781 M311.212 157.849 C 311.205 158.096,312.055 159.051,313.100 159.971 C 314.145 160.891,315.315 161.936,315.700 162.292 C 316.145 162.704,316.400 162.766,316.400 162.464 C 316.400 162.202,315.861 161.660,315.201 161.259 C 314.542 160.858,314.109 160.424,314.239 160.295 C 314.368 160.165,313.927 159.776,313.257 159.430 C 312.588 159.083,311.856 158.485,311.632 158.100 C 311.408 157.715,311.219 157.602,311.212 157.849 M86.200 159.200 C 85.802 159.640,85.601 160.000,85.755 160.000 C 85.908 160.000,86.420 159.640,86.892 159.200 C 87.364 158.760,87.565 158.400,87.337 158.400 C 87.110 158.400,86.598 158.760,86.200 159.200 M84.228 161.146 C 83.583 161.525,82.974 162.079,82.874 162.379 C 82.774 162.678,83.347 162.424,84.146 161.814 C 86.154 160.282,86.189 159.995,84.228 161.146 M78.800 166.400 C 78.800 166.620,78.530 166.800,78.200 166.800 C 77.870 166.800,77.600 166.986,77.600 167.214 C 77.600 167.495,77.858 167.490,78.400 167.200 C 79.112 166.819,79.521 166.000,79.000 166.000 C 78.890 166.000,78.800 166.180,78.800 166.400 M320.799 166.998 C 321.314 167.548,321.825 167.909,321.932 167.801 C 322.198 167.535,320.779 166.000,320.268 166.000 C 320.044 166.000,320.283 166.449,320.799 166.998 M76.200 168.400 C 75.802 168.840,75.678 169.200,75.924 169.200 C 76.170 169.200,76.565 168.840,76.800 168.400 C 77.035 167.960,77.160 167.600,77.076 167.600 C 76.992 167.600,76.598 167.960,76.200 168.400 M322.400 168.100 C 322.400 168.648,325.143 170.991,325.438 170.695 C 325.539 170.594,324.984 170.025,324.203 169.430 C 323.423 168.835,322.889 168.180,323.016 167.974 C 323.143 167.768,323.057 167.600,322.824 167.600 C 322.591 167.600,322.400 167.825,322.400 168.100 M71.336 172.724 C 71.232 173.121,70.664 173.747,70.073 174.113 C 69.483 174.479,69.195 174.784,69.433 174.789 C 69.672 174.795,70.572 174.177,71.433 173.417 C 72.632 172.358,72.827 172.029,72.263 172.017 C 71.857 172.007,71.440 172.326,71.336 172.724 M327.200 172.725 C 327.200 172.903,327.785 173.471,328.500 173.985 L 329.800 174.921 328.625 173.661 C 327.380 172.325,327.200 172.206,327.200 172.725 M330.664 175.469 C 330.375 175.758,332.322 178.000,332.862 178.000 C 333.034 178.000,333.068 177.722,332.938 177.383 C 332.808 177.043,332.602 176.865,332.481 176.986 C 332.359 177.107,331.963 176.754,331.600 176.200 C 331.237 175.646,330.816 175.318,330.664 175.469 M67.374 176.358 C 67.496 176.555,67.326 176.819,66.998 176.946 C 66.669 177.072,66.400 177.359,66.400 177.584 C 66.400 177.808,66.760 177.684,67.200 177.307 C 68.077 176.556,68.237 176.000,67.576 176.000 C 67.343 176.000,67.252 176.161,67.374 176.358 M336.134 180.957 C 338.554 183.355,340.490 184.488,338.600 182.400 C 338.199 181.957,337.781 181.686,337.670 181.796 C 337.560 181.907,337.004 181.503,336.435 180.899 C 335.866 180.294,334.950 179.451,334.400 179.024 C 333.850 178.597,334.630 179.467,336.134 180.957 M62.681 181.039 C 62.286 181.568,61.722 182.000,61.428 182.000 C 61.134 182.000,60.798 182.366,60.681 182.813 C 60.523 183.415,60.895 183.212,62.115 182.027 C 63.021 181.148,63.681 180.350,63.581 180.254 C 63.481 180.157,63.077 180.511,62.681 181.039 M342.245 186.327 C 342.121 186.528,342.375 187.015,342.809 187.409 C 343.475 188.011,343.600 188.027,343.600 187.511 C 343.600 186.743,342.553 185.828,342.245 186.327 M344.000 187.896 C 344.000 188.143,344.585 188.746,345.300 189.235 C 346.255 189.888,346.388 189.922,345.800 189.362 C 345.360 188.943,344.775 188.341,344.500 188.024 C 344.206 187.684,344.000 187.632,344.000 187.896 M53.624 188.975 C 53.096 189.537,52.742 190.075,52.838 190.171 C 53.167 190.500,54.906 188.917,54.745 188.435 C 54.644 188.132,54.226 188.333,53.624 188.975 M346.846 190.411 C 346.821 190.747,347.121 191.287,347.513 191.611 C 349.344 193.124,349.600 193.279,349.600 192.872 C 349.600 192.637,349.066 192.130,348.414 191.745 C 347.762 191.360,347.153 190.764,347.061 190.422 C 346.914 189.877,346.887 189.876,346.846 190.411 M47.985 194.500 C 47.453 194.995,46.929 195.341,46.819 195.270 C 46.710 195.199,46.556 195.334,46.477 195.570 C 46.207 196.378,47.049 196.002,48.200 194.800 C 49.543 193.399,49.392 193.189,47.985 194.500 M351.043 194.776 C 351.994 195.785,352.800 196.049,352.800 195.353 C 352.800 195.243,352.640 195.252,352.444 195.373 C 352.248 195.494,351.794 195.145,351.435 194.597 C 351.075 194.048,350.590 193.600,350.357 193.600 C 350.123 193.600,350.432 194.129,351.043 194.776 M353.406 196.953 C 354.243 198.231,354.483 198.293,354.049 197.121 C 353.870 196.637,353.498 196.166,353.222 196.074 C 352.900 195.967,352.966 196.282,353.406 196.953 M43.772 198.107 C 42.525 199.453,42.118 200.327,43.168 199.404 C 43.961 198.709,45.030 197.188,44.714 197.207 C 44.651 197.211,44.228 197.616,43.772 198.107 M356.202 199.602 C 356.602 200.044,357.011 200.322,357.112 200.221 C 357.328 200.005,356.188 198.800,355.767 198.800 C 355.607 198.800,355.803 199.161,356.202 199.602 M359.630 202.637 C 360.164 203.207,360.960 203.847,361.400 204.059 C 362.187 204.438,362.187 204.434,361.424 203.822 C 360.996 203.480,360.794 203.200,360.973 203.200 C 361.152 203.200,361.076 202.932,360.804 202.604 C 360.532 202.277,360.150 202.107,359.955 202.228 C 359.760 202.349,359.600 202.257,359.600 202.024 C 359.600 201.791,359.389 201.600,359.130 201.600 C 358.872 201.600,359.097 202.067,359.630 202.637 M38.600 203.200 C 38.202 203.640,37.646 204.000,37.365 204.000 C 37.084 204.000,36.739 204.363,36.598 204.806 C 36.457 205.249,36.148 205.491,35.909 205.344 C 35.649 205.183,35.592 205.263,35.767 205.547 C 36.004 205.930,39.600 203.091,39.600 202.521 C 39.600 202.233,39.275 202.454,38.600 203.200 M366.883 209.351 C 368.001 210.434,368.400 210.628,368.400 210.086 C 368.400 209.914,367.815 209.442,367.100 209.037 L 365.800 208.302 366.883 209.351 M31.193 209.771 C 29.683 210.761,28.480 212.008,29.051 211.988 C 29.243 211.981,30.210 211.267,31.200 210.400 C 33.240 208.614,33.238 208.428,31.193 209.771 M370.784 212.770 C 371.028 213.226,371.402 213.600,371.614 213.600 C 372.301 213.600,372.023 212.841,371.170 212.384 C 370.410 211.977,370.377 212.010,370.784 212.770 M372.203 214.405 C 372.337 214.622,372.693 214.800,372.994 214.800 C 373.295 214.800,373.626 215.074,373.730 215.408 C 373.877 215.883,373.906 215.871,373.859 215.353 C 373.827 214.988,373.386 214.537,372.880 214.351 C 372.293 214.134,372.048 214.154,372.203 214.405 M23.800 216.400 C 23.399 216.843,23.162 217.295,23.272 217.405 C 23.382 217.515,23.799 217.243,24.200 216.800 C 24.601 216.357,24.838 215.905,24.728 215.795 C 24.618 215.685,24.201 215.957,23.800 216.400 M375.600 217.317 C 375.930 217.603,376.447 218.098,376.749 218.418 C 377.219 218.916,377.235 218.877,376.860 218.147 C 376.619 217.678,376.102 217.183,375.711 217.046 C 375.092 216.830,375.078 216.865,375.600 217.317 M377.860 219.411 C 378.086 220.002,379.600 221.048,379.600 220.614 C 379.600 220.351,378.072 218.800,377.813 218.800 C 377.709 218.800,377.731 219.075,377.860 219.411 M18.188 221.900 L 17.485 223.000 18.542 222.030 C 19.686 220.982,19.790 220.800,19.246 220.800 C 19.051 220.800,18.575 221.295,18.188 221.900 M380.000 221.373 C 380.000 221.468,380.585 221.950,381.300 222.444 L 382.600 223.342 381.630 222.271 C 380.766 221.316,380.000 220.894,380.000 221.373 M16.534 222.668 C 16.681 222.815,16.486 223.310,16.101 223.768 C 15.401 224.599,15.401 224.599,16.300 223.838 C 17.283 223.006,17.465 222.400,16.733 222.400 C 16.477 222.400,16.387 222.520,16.534 222.668 M383.867 225.012 C 384.710 225.757,385.569 226.374,385.775 226.383 C 386.414 226.412,383.966 224.085,383.126 223.865 C 382.596 223.726,382.842 224.107,383.867 225.012 M14.400 224.977 C 14.400 225.295,14.000 225.835,13.511 226.177 C 13.022 226.520,12.811 226.800,13.041 226.800 C 13.496 226.800,15.200 225.122,15.200 224.674 C 15.200 224.523,15.020 224.400,14.800 224.400 C 14.580 224.400,14.400 224.660,14.400 224.977 M11.384 227.627 C 11.239 227.861,11.216 228.149,11.333 228.267 C 11.620 228.553,12.400 228.048,12.400 227.576 C 12.400 227.065,11.709 227.099,11.384 227.627 M389.400 229.937 C 391.563 232.271,392.901 233.004,391.397 231.031 C 390.787 230.232,390.192 229.675,390.074 229.793 C 389.956 229.911,389.396 229.603,388.830 229.109 C 388.263 228.615,388.520 228.988,389.400 229.937 M9.006 230.244 C 8.575 230.818,7.767 231.469,7.211 231.691 C 6.615 231.930,6.407 232.172,6.705 232.283 C 7.229 232.477,9.762 230.579,10.153 229.700 C 10.544 228.820,9.816 229.165,9.006 230.244 M395.570 235.757 L 396.539 236.800 366.284 236.800 C 336.780 236.800,336.018 236.819,335.614 237.574 C 335.047 238.633,335.033 408.800,335.600 408.800 C 335.865 408.800,336.000 379.933,336.000 323.000 L 336.000 237.200 366.400 237.200 C 383.120 237.200,396.800 237.050,396.800 236.867 C 396.800 236.683,396.665 236.398,396.500 236.233 C 396.335 236.068,396.200 235.726,396.200 235.472 C 396.200 235.218,395.840 234.944,395.400 234.862 C 394.662 234.725,394.675 234.795,395.570 235.757 M32.700 237.100 L 63.200 237.205 63.200 323.069 C 63.200 370.294,63.327 408.807,63.482 408.652 C 63.893 408.240,63.930 238.331,63.518 237.500 C 63.192 236.841,61.378 236.806,32.686 236.897 L 2.200 236.995 32.700 237.100 " stroke="none" fill="#373733" fill-rule="evenodd"></path></g></svg>